<?xml version="1.0" encoding="UTF-8" standalone="no"?>
<!-- Created with Inkscape (http://www.inkscape.org/) -->

<svg
   width="159.02296mm"
   height="94.080093mm"
   viewBox="0 0 159.02296 94.080093"
   version="1.1"
   id="svg1"
   xmlns:inkscape="http://www.inkscape.org/namespaces/inkscape"
   xmlns:sodipodi="http://sodipodi.sourceforge.net/DTD/sodipodi-0.dtd"
   xmlns="http://www.w3.org/2000/svg"
   xmlns:svg="http://www.w3.org/2000/svg">
  <sodipodi:namedview
     id="namedview1"
     pagecolor="#ffffff"
     bordercolor="#000000"
     borderopacity="0.25"
     inkscape:showpageshadow="2"
     inkscape:pageopacity="0.0"
     inkscape:pagecheckerboard="0"
     inkscape:deskcolor="#d1d1d1"
     inkscape:document-units="mm" />
  <defs
     id="defs1" />
  <g
     inkscape:label="Layer 1"
     inkscape:groupmode="layer"
     id="layer1"
     transform="translate(-1.8520734,-20.637496)">
    <g
       id="g11733"
       transform="matrix(1.2010926,0,0,1.2010926,-1914.1592,-547.84951)"
       inkscape:export-filename="Logo.svg"
       inkscape:export-xdpi="96"
       inkscape:export-ydpi="96">
      <path
         id="path3298-6-5-2-4-0-8-3"
         d="m 1687.5419,492.51828 c 0,1.51405 -4.9038,2.74138 -10.953,2.74138 -6.049,0 -10.9528,-1.22733 -10.9528,-2.74138 0,-1.51398 4.9038,-2.74135 10.9528,-2.74135 6.0492,0 10.953,1.22737 10.953,2.74135 z"
         style="color:#000000;display:inline;overflow:visible;visibility:visible;fill:none;stroke:#6ac1ff;stroke-width:1.20426;stroke-linecap:round;stroke-linejoin:round;stroke-miterlimit:4;stroke-dashoffset:0;stroke-opacity:1;marker:none;enable-background:accumulate"
         inkscape:connector-curvature="0" />
      <path
         style="color:#000000;display:inline;overflow:visible;visibility:visible;fill:none;stroke:#4a9ce6;stroke-width:1.20426;stroke-linecap:round;stroke-linejoin:round;stroke-miterlimit:4;stroke-dasharray:none;stroke-dashoffset:0;stroke-opacity:1;marker:none;enable-background:accumulate"
         d="m 1676.6082,488.56109 c -7.9551,0 -14.4055,1.89219 -14.4055,4.22104 0,2.32881 6.4504,4.20935 14.4055,4.20935 7.9551,0 14.4053,-1.88054 14.4053,-4.20935 0,-2.32885 -6.4502,-4.22104 -14.4053,-4.22104 z"
         id="path3300-9-8-3-3-9-8-6"
         inkscape:connector-curvature="0"
         sodipodi:nodetypes="sssss" />
      <g
         id="g8744-1-2-0-2-5-6-9"
         transform="matrix(0.48170278,0,0,0.48170278,1076.8685,13.790752)">
        <path
           d="m 1227.6825,990.32006 c 0,-4.10674 4.9224,-6.13008 9.5679,-6.05721 4.6456,0.0732 10.7334,2.74159 10.7334,6.48293 0,3.74044 -6.3572,3.56613 -10.7334,3.56613 -2.2043,0 -6.2112,0.27933 -7.9355,-0.69884 -1.7003,-0.96573 -1.7055,-3.29301 -1.6324,-3.29301 z"
           id="path468-4-1-4-0-0-2-9"
           style="fill:#000000;fill-opacity:1;fill-rule:nonzero;stroke:#000000;stroke-width:2.20433;stroke-linecap:butt;stroke-linejoin:round;stroke-miterlimit:4;stroke-dasharray:none;stroke-opacity:1"
           inkscape:connector-curvature="0" />
        <path
           d="m 1227.6825,990.32006 c 0,-4.10674 4.9224,-6.13008 9.5679,-6.05721 4.6456,0.0732 10.7334,2.74159 10.7334,6.48293 0,3.74044 -6.3572,3.56613 -10.7334,3.56613 -2.2043,0 -6.2112,0.27933 -7.9355,-0.69884 -1.7003,-0.96573 -1.7055,-3.29301 -1.6324,-3.29301 z"
           id="path472-7-0-6-5-5-0-6"
           style="fill:#a67e33;fill-opacity:1;fill-rule:nonzero;stroke:#000000;stroke-width:1.76346;stroke-linecap:butt;stroke-linejoin:round;stroke-miterlimit:4;stroke-dasharray:none;stroke-opacity:1"
           inkscape:connector-curvature="0" />
        <path
           d="m 1262.264,973.83207 c 0,10.16936 -8.2434,18.41259 -18.4125,18.41259 -10.1695,0 -18.4129,-8.24323 -18.4129,-18.41259 0,-10.1694 8.2434,-18.41293 18.4129,-18.41293 10.1691,0 18.4125,8.24353 18.4125,18.41293 z"
           id="path524-8-2-0-1-2-1-4"
           style="fill:#000000;fill-opacity:1;fill-rule:evenodd;stroke:#000000;stroke-width:2.9503;stroke-linecap:butt;stroke-linejoin:round;stroke-miterlimit:4;stroke-dasharray:none;stroke-opacity:1"
           inkscape:connector-curvature="0" />
        <path
           d="m 1262.264,973.83207 c 0,10.16936 -8.2434,18.41259 -18.4125,18.41259 -10.1695,0 -18.4129,-8.24323 -18.4129,-18.41259 0,-10.1694 8.2434,-18.41293 18.4129,-18.41293 10.1691,0 18.4125,8.24353 18.4125,18.41293 z"
           id="path528-4-3-9-8-3-4-1"
           style="fill:#ffa500;fill-opacity:1;fill-rule:evenodd;stroke:#000000;stroke-width:1.31125;stroke-linecap:butt;stroke-linejoin:miter;stroke-miterlimit:4;stroke-dasharray:none;stroke-opacity:1"
           inkscape:connector-curvature="0" />
        <path
           inkscape:connector-curvature="0"
           style="opacity:0.3;fill:#d40000;fill-opacity:1;fill-rule:evenodd;stroke:none"
           id="path530-6-0-0-5-4-8-9"
           d="m 1259.611,965.67966 c 0.1067,0.81406 0.2052,1.63468 0.2052,2.47993 0,10.49872 -8.5125,19.03322 -19.0126,19.03322 -4.8301,0 -9.1847,-1.86446 -12.5391,-4.83508 3.0222,5.51853 8.8526,9.28056 15.5906,9.28056 9.8386,0 17.7845,-7.96528 17.7845,-17.80359 0,-2.95063 -0.7602,-5.70596 -2.0286,-8.15504 z" />
        <path
           d="m 1243.0216,990.32006 c 0,-4.10674 4.9225,-6.13008 9.5682,-6.05721 4.6454,0.0732 10.7335,2.74159 10.7335,6.48293 0,3.74044 -6.3573,3.56613 -10.7335,3.56613 -2.2042,0 -6.2112,0.27933 -7.9371,-0.69884 -1.7003,-0.96573 -1.7039,-3.29301 -1.6311,-3.29301 z"
           id="path538-1-6-1-6-2-6-1"
           style="fill:#000000;fill-opacity:1;fill-rule:nonzero;stroke:#000000;stroke-width:2.20433;stroke-linecap:butt;stroke-linejoin:round;stroke-miterlimit:4;stroke-dasharray:none;stroke-opacity:1"
           inkscape:connector-curvature="0" />
        <path
           d="m 1243.0216,990.32006 c 0,-4.10674 4.9215,-6.13008 9.5682,-6.05721 4.6454,0.0732 10.7335,2.74159 10.7335,6.48293 0,3.74044 -6.3573,3.56613 -10.7335,3.56613 -2.2042,0 -6.2112,0.27933 -7.9371,-0.69884 -1.7003,-0.96573 -1.7039,-3.29301 -1.6311,-3.29301 z"
           id="path542-8-1-7-3-6-0-5"
           style="fill:#a67e33;fill-opacity:1;fill-rule:nonzero;stroke:#000000;stroke-width:1.76346;stroke-linecap:butt;stroke-linejoin:round;stroke-miterlimit:4;stroke-dasharray:none;stroke-opacity:1"
           inkscape:connector-curvature="0" />
        <path
           sodipodi:nodetypes="sssss"
           inkscape:connector-curvature="0"
           style="color:#000000;display:inline;overflow:visible;visibility:visible;fill:#1a1a1a;fill-opacity:1;fill-rule:nonzero;stroke:none;stroke-width:4;marker:none;enable-background:accumulate"
           d="m 1247.8295,971.31102 c 0,3.19142 -1.3204,5.77859 -2.9492,5.77859 -1.6288,0 -2.9492,-2.58717 -2.9492,-5.77859 0,-3.19142 1.3204,-5.77858 2.9492,-5.77858 1.6288,0 2.9492,2.58716 2.9492,5.77858 z"
           id="path3308-6-4-3-3-2-2-4-5" />
        <path
           sodipodi:nodetypes="sscsscs"
           id="path3312-6-2-2-6-9-5-9-5"
           d="m 1244.8883,965.53107 c -1.6288,0 -2.9479,2.5831 -2.9479,5.77452 0,2.7504 0.9879,5.06094 2.3012,5.6474 -0.6631,-1.06351 -1.084,-2.67727 -1.084,-4.48523 0,-3.19142 1.319,-5.77452 2.9478,-5.77452 0.2251,0 0.436,0.0518 0.6467,0.14527 -0.5076,-0.81052 -1.1575,-1.30744 -1.8638,-1.30744 z"
           style="color:#000000;display:inline;overflow:visible;visibility:visible;fill:#000000;fill-opacity:1;fill-rule:nonzero;stroke:none;stroke-width:4;marker:none;enable-background:accumulate"
           inkscape:connector-curvature="0" />
        <path
           sodipodi:nodetypes="sssss"
           inkscape:connector-curvature="0"
           style="color:#000000;display:inline;overflow:visible;visibility:visible;fill:#1a1a1a;fill-opacity:1;fill-rule:nonzero;stroke:none;stroke-width:4;marker:none;enable-background:accumulate"
           d="m 1240.0892,971.30643 c 0,3.19142 -1.3204,5.77859 -2.9493,5.77859 -1.6288,0 -2.9492,-2.58717 -2.9492,-5.77859 0,-3.19143 1.3204,-5.77859 2.9492,-5.77859 1.6289,0 2.9493,2.58716 2.9493,5.77859 z"
           id="path3308-6-8-1-0-0-0-2-1-2" />
        <path
           sodipodi:nodetypes="sscsscs"
           id="path3312-6-9-0-8-5-7-4-4-9"
           d="m 1237.1479,965.52647 c -1.6288,0 -2.9479,2.58311 -2.9479,5.77453 0,2.75039 0.988,5.06094 2.3013,5.64741 -0.6632,-1.06353 -1.0841,-2.67729 -1.0841,-4.48524 0,-3.19143 1.319,-5.77453 2.9479,-5.77453 0.2251,0 0.436,0.0518 0.6466,0.14528 -0.5076,-0.81052 -1.1574,-1.30745 -1.8638,-1.30745 z"
           style="color:#000000;display:inline;overflow:visible;visibility:visible;fill:#000000;fill-opacity:1;fill-rule:nonzero;stroke:none;stroke-width:4;marker:none;enable-background:accumulate"
           inkscape:connector-curvature="0" />
        <path
           style="opacity:0.3;fill:#000000;fill-opacity:1;stroke:none"
           d="m 1259.8795,986.97487 c -0.1667,3.16667 -3.5833,6.20833 -10.625,6.875 h 10 l 3.75,-1.625 -0.125,-3 z"
           id="path8730-0-4-4-0-0-8-9"
           inkscape:connector-curvature="0"
           sodipodi:nodetypes="cccccc" />
      </g>
      <path
         id="path3298-6-5-2-4-0-8"
         d="m 1641.5586,513.85549 c 0,2.70431 -8.7589,4.89651 -19.5636,4.89651 -10.8045,0 -19.5633,-2.1922 -19.5633,-4.89651 0,-2.70419 8.7588,-4.89645 19.5633,-4.89645 10.8047,0 19.5636,2.19226 19.5636,4.89645 z"
         style="color:#000000;display:inline;overflow:visible;visibility:visible;fill:none;stroke:#6ac1ff;stroke-width:2.15098;stroke-linecap:round;stroke-linejoin:round;stroke-miterlimit:4;stroke-dashoffset:0;stroke-opacity:1;marker:none;enable-background:accumulate"
         inkscape:connector-curvature="0" />
      <path
         style="color:#000000;display:inline;overflow:visible;visibility:visible;fill:none;stroke:#4a9ce6;stroke-width:2.15098;stroke-linecap:round;stroke-linejoin:round;stroke-miterlimit:4;stroke-dasharray:none;stroke-dashoffset:0;stroke-opacity:1;marker:none;enable-background:accumulate"
         d="m 1622.0294,506.78736 c -14.2091,0 -25.7303,3.37973 -25.7303,7.53939 0,4.15961 11.5212,7.51853 25.7303,7.51853 14.209,0 25.7299,-3.35892 25.7299,-7.51853 0,-4.15966 -11.5209,-7.53939 -25.7299,-7.53939 z"
         id="path3300-9-8-3-3-9-8"
         inkscape:connector-curvature="0"
         sodipodi:nodetypes="sssss" />
      <g
         id="g8744-1-2-0-2-5-6"
         transform="matrix(0.86039199,0,0,0.86039199,550.80606,-341.22226)">
        <path
           d="m 1227.6825,990.32006 c 0,-4.10674 4.9224,-6.13008 9.5679,-6.05721 4.6456,0.0732 10.7334,2.74159 10.7334,6.48293 0,3.74044 -6.3572,3.56613 -10.7334,3.56613 -2.2043,0 -6.2112,0.27933 -7.9355,-0.69884 -1.7003,-0.96573 -1.7055,-3.29301 -1.6324,-3.29301 z"
           id="path468-4-1-4-0-0-2"
           style="fill:#000000;fill-opacity:1;fill-rule:nonzero;stroke:#000000;stroke-width:2.20433;stroke-linecap:butt;stroke-linejoin:round;stroke-miterlimit:4;stroke-dasharray:none;stroke-opacity:1"
           inkscape:connector-curvature="0" />
        <path
           d="m 1227.6825,990.32006 c 0,-4.10674 4.9224,-6.13008 9.5679,-6.05721 4.6456,0.0732 10.7334,2.74159 10.7334,6.48293 0,3.74044 -6.3572,3.56613 -10.7334,3.56613 -2.2043,0 -6.2112,0.27933 -7.9355,-0.69884 -1.7003,-0.96573 -1.7055,-3.29301 -1.6324,-3.29301 z"
           id="path472-7-0-6-5-5-0"
           style="fill:#a67e33;fill-opacity:1;fill-rule:nonzero;stroke:#000000;stroke-width:1.76346;stroke-linecap:butt;stroke-linejoin:round;stroke-miterlimit:4;stroke-dasharray:none;stroke-opacity:1"
           inkscape:connector-curvature="0" />
        <path
           d="m 1262.264,973.83207 c 0,10.16936 -8.2434,18.41259 -18.4125,18.41259 -10.1695,0 -18.4129,-8.24323 -18.4129,-18.41259 0,-10.1694 8.2434,-18.41293 18.4129,-18.41293 10.1691,0 18.4125,8.24353 18.4125,18.41293 z"
           id="path524-8-2-0-1-2-1"
           style="fill:#000000;fill-opacity:1;fill-rule:evenodd;stroke:#000000;stroke-width:2.9503;stroke-linecap:butt;stroke-linejoin:round;stroke-miterlimit:4;stroke-dasharray:none;stroke-opacity:1"
           inkscape:connector-curvature="0" />
        <path
           d="m 1262.264,973.83207 c 0,10.16936 -8.2434,18.41259 -18.4125,18.41259 -10.1695,0 -18.4129,-8.24323 -18.4129,-18.41259 0,-10.1694 8.2434,-18.41293 18.4129,-18.41293 10.1691,0 18.4125,8.24353 18.4125,18.41293 z"
           id="path528-4-3-9-8-3-4"
           style="fill:#ffa500;fill-opacity:1;fill-rule:evenodd;stroke:#000000;stroke-width:1.31125;stroke-linecap:butt;stroke-linejoin:miter;stroke-miterlimit:4;stroke-dasharray:none;stroke-opacity:1"
           inkscape:connector-curvature="0" />
        <path
           inkscape:connector-curvature="0"
           style="opacity:0.3;fill:#d40000;fill-opacity:1;fill-rule:evenodd;stroke:none"
           id="path530-6-0-0-5-4-8"
           d="m 1259.611,965.67966 c 0.1067,0.81406 0.2052,1.63468 0.2052,2.47993 0,10.49872 -8.5125,19.03322 -19.0126,19.03322 -4.8301,0 -9.1847,-1.86446 -12.5391,-4.83508 3.0222,5.51853 8.8526,9.28056 15.5906,9.28056 9.8386,0 17.7845,-7.96528 17.7845,-17.80359 0,-2.95063 -0.7602,-5.70596 -2.0286,-8.15504 z" />
        <path
           d="m 1243.0216,990.32006 c 0,-4.10674 4.9225,-6.13008 9.5682,-6.05721 4.6454,0.0732 10.7335,2.74159 10.7335,6.48293 0,3.74044 -6.3573,3.56613 -10.7335,3.56613 -2.2042,0 -6.2112,0.27933 -7.9371,-0.69884 -1.7003,-0.96573 -1.7039,-3.29301 -1.6311,-3.29301 z"
           id="path538-1-6-1-6-2-6"
           style="fill:#000000;fill-opacity:1;fill-rule:nonzero;stroke:#000000;stroke-width:2.20433;stroke-linecap:butt;stroke-linejoin:round;stroke-miterlimit:4;stroke-dasharray:none;stroke-opacity:1"
           inkscape:connector-curvature="0" />
        <path
           d="m 1243.0216,990.32006 c 0,-4.10674 4.9215,-6.13008 9.5682,-6.05721 4.6454,0.0732 10.7335,2.74159 10.7335,6.48293 0,3.74044 -6.3573,3.56613 -10.7335,3.56613 -2.2042,0 -6.2112,0.27933 -7.9371,-0.69884 -1.7003,-0.96573 -1.7039,-3.29301 -1.6311,-3.29301 z"
           id="path542-8-1-7-3-6-0"
           style="fill:#a67e33;fill-opacity:1;fill-rule:nonzero;stroke:#000000;stroke-width:1.76346;stroke-linecap:butt;stroke-linejoin:round;stroke-miterlimit:4;stroke-dasharray:none;stroke-opacity:1"
           inkscape:connector-curvature="0" />
        <path
           sodipodi:nodetypes="sssss"
           inkscape:connector-curvature="0"
           style="color:#000000;display:inline;overflow:visible;visibility:visible;fill:#1a1a1a;fill-opacity:1;fill-rule:nonzero;stroke:none;stroke-width:4;marker:none;enable-background:accumulate"
           d="m 1253.5811,973.64628 c 0,3.19142 -1.3204,5.77859 -2.9492,5.77859 -1.6288,0 -2.9492,-2.58717 -2.9492,-5.77859 0,-3.19142 1.3204,-5.77858 2.9492,-5.77858 1.6288,0 2.9492,2.58716 2.9492,5.77858 z"
           id="path3308-6-4-3-3-2-2-4" />
        <path
           sodipodi:nodetypes="sscsscs"
           id="path3312-6-2-2-6-9-5-9"
           d="m 1250.6399,967.86633 c -1.6288,0 -2.9479,2.5831 -2.9479,5.77452 0,2.7504 0.9879,5.06094 2.3012,5.6474 -0.6631,-1.06351 -1.084,-2.67727 -1.084,-4.48523 0,-3.19142 1.319,-5.77452 2.9478,-5.77452 0.2251,0 0.436,0.0518 0.6467,0.14527 -0.5076,-0.81052 -1.1575,-1.30744 -1.8638,-1.30744 z"
           style="color:#000000;display:inline;overflow:visible;visibility:visible;fill:#000000;fill-opacity:1;fill-rule:nonzero;stroke:none;stroke-width:4;marker:none;enable-background:accumulate"
           inkscape:connector-curvature="0" />
        <path
           sodipodi:nodetypes="sssss"
           inkscape:connector-curvature="0"
           style="color:#000000;display:inline;overflow:visible;visibility:visible;fill:#1a1a1a;fill-opacity:1;fill-rule:nonzero;stroke:none;stroke-width:4;marker:none;enable-background:accumulate"
           d="m 1245.8408,973.64169 c 0,3.19142 -1.3204,5.77859 -2.9493,5.77859 -1.6288,0 -2.9492,-2.58717 -2.9492,-5.77859 0,-3.19143 1.3204,-5.77859 2.9492,-5.77859 1.6289,0 2.9493,2.58716 2.9493,5.77859 z"
           id="path3308-6-8-1-0-0-0-2-1" />
        <path
           sodipodi:nodetypes="sscsscs"
           id="path3312-6-9-0-8-5-7-4-4"
           d="m 1242.8995,967.86173 c -1.6288,0 -2.9479,2.58311 -2.9479,5.77453 0,2.75039 0.988,5.06094 2.3013,5.64741 -0.6632,-1.06353 -1.0841,-2.67729 -1.0841,-4.48524 0,-3.19143 1.319,-5.77453 2.9479,-5.77453 0.2251,0 0.436,0.0518 0.6466,0.14528 -0.5076,-0.81052 -1.1574,-1.30745 -1.8638,-1.30745 z"
           style="color:#000000;display:inline;overflow:visible;visibility:visible;fill:#000000;fill-opacity:1;fill-rule:nonzero;stroke:none;stroke-width:4;marker:none;enable-background:accumulate"
           inkscape:connector-curvature="0" />
        <path
           style="opacity:0.3;fill:#000000;fill-opacity:1;stroke:none"
           d="m 1259.8795,986.97487 c -0.1667,3.16667 -3.5833,6.20833 -10.625,6.875 h 10 l 3.75,-1.625 -0.125,-3 z"
           id="path8730-0-4-4-0-0-8"
           inkscape:connector-curvature="0"
           sodipodi:nodetypes="cccccc" />
      </g>
      <path
         id="path3298-6-5-2-4-0"
         d="m 1720.948,513.95906 c 0,2.48057 -8.0343,4.4914 -17.945,4.4914 -9.9107,0 -17.9448,-2.01083 -17.9448,-4.4914 0,-2.48045 8.0341,-4.49134 17.9448,-4.49134 9.9107,0 17.945,2.01089 17.945,4.49134 z"
         style="color:#000000;display:inline;overflow:visible;visibility:visible;fill:none;stroke:#6ac1ff;stroke-width:1.97302;stroke-linecap:round;stroke-linejoin:round;stroke-miterlimit:4;stroke-dashoffset:0;stroke-opacity:1;marker:none;enable-background:accumulate"
         inkscape:connector-curvature="0" />
      <path
         style="color:#000000;display:inline;overflow:visible;visibility:visible;fill:none;stroke:#4a9ce6;stroke-width:1.97302;stroke-linecap:round;stroke-linejoin:round;stroke-miterlimit:4;stroke-dasharray:none;stroke-dashoffset:0;stroke-opacity:1;marker:none;enable-background:accumulate"
         d="m 1703.0344,507.47572 c -13.0334,0 -23.6013,3.10011 -23.6013,6.91562 0,3.81546 10.5679,6.89648 23.6013,6.89648 13.0335,0 23.6013,-3.08102 23.6013,-6.89648 0,-3.81551 -10.5678,-6.91562 -23.6013,-6.91562 z"
         id="path3300-9-8-3-3-9"
         inkscape:connector-curvature="0"
         sodipodi:nodetypes="sssss" />
      <g
         id="g8744-1-2-0-2-5"
         transform="matrix(0.78920714,0,0,0.78920714,720.43924,-270.3735)">
        <path
           d="m 1227.6825,990.32006 c 0,-4.10674 4.9224,-6.13008 9.5679,-6.05721 4.6456,0.0732 10.7334,2.74159 10.7334,6.48293 0,3.74044 -6.3572,3.56613 -10.7334,3.56613 -2.2043,0 -6.2112,0.27933 -7.9355,-0.69884 -1.7003,-0.96573 -1.7055,-3.29301 -1.6324,-3.29301 z"
           id="path468-4-1-4-0-0"
           style="fill:#000000;fill-opacity:1;fill-rule:nonzero;stroke:#000000;stroke-width:2.20433;stroke-linecap:butt;stroke-linejoin:round;stroke-miterlimit:4;stroke-dasharray:none;stroke-opacity:1"
           inkscape:connector-curvature="0" />
        <path
           d="m 1227.6825,990.32006 c 0,-4.10674 4.9224,-6.13008 9.5679,-6.05721 4.6456,0.0732 10.7334,2.74159 10.7334,6.48293 0,3.74044 -6.3572,3.56613 -10.7334,3.56613 -2.2043,0 -6.2112,0.27933 -7.9355,-0.69884 -1.7003,-0.96573 -1.7055,-3.29301 -1.6324,-3.29301 z"
           id="path472-7-0-6-5-5"
           style="fill:#a67e33;fill-opacity:1;fill-rule:nonzero;stroke:#000000;stroke-width:1.76346;stroke-linecap:butt;stroke-linejoin:round;stroke-miterlimit:4;stroke-dasharray:none;stroke-opacity:1"
           inkscape:connector-curvature="0" />
        <path
           d="m 1262.264,973.83207 c 0,10.16936 -8.2434,18.41259 -18.4125,18.41259 -10.1695,0 -18.4129,-8.24323 -18.4129,-18.41259 0,-10.1694 8.2434,-18.41293 18.4129,-18.41293 10.1691,0 18.4125,8.24353 18.4125,18.41293 z"
           id="path524-8-2-0-1-2"
           style="fill:#000000;fill-opacity:1;fill-rule:evenodd;stroke:#000000;stroke-width:2.9503;stroke-linecap:butt;stroke-linejoin:round;stroke-miterlimit:4;stroke-dasharray:none;stroke-opacity:1"
           inkscape:connector-curvature="0" />
        <path
           d="m 1262.264,973.83207 c 0,10.16936 -8.2434,18.41259 -18.4125,18.41259 -10.1695,0 -18.4129,-8.24323 -18.4129,-18.41259 0,-10.1694 8.2434,-18.41293 18.4129,-18.41293 10.1691,0 18.4125,8.24353 18.4125,18.41293 z"
           id="path528-4-3-9-8-3"
           style="fill:#ffa500;fill-opacity:1;fill-rule:evenodd;stroke:#000000;stroke-width:1.31125;stroke-linecap:butt;stroke-linejoin:miter;stroke-miterlimit:4;stroke-dasharray:none;stroke-opacity:1"
           inkscape:connector-curvature="0" />
        <path
           inkscape:connector-curvature="0"
           style="opacity:0.3;fill:#d40000;fill-opacity:1;fill-rule:evenodd;stroke:none"
           id="path530-6-0-0-5-4"
           d="m 1259.611,965.67966 c 0.1067,0.81406 0.2052,1.63468 0.2052,2.47993 0,10.49872 -8.5125,19.03322 -19.0126,19.03322 -4.8301,0 -9.1847,-1.86446 -12.5391,-4.83508 3.0222,5.51853 8.8526,9.28056 15.5906,9.28056 9.8386,0 17.7845,-7.96528 17.7845,-17.80359 0,-2.95063 -0.7602,-5.70596 -2.0286,-8.15504 z" />
        <path
           d="m 1243.0216,990.32006 c 0,-4.10674 4.9225,-6.13008 9.5682,-6.05721 4.6454,0.0732 10.7335,2.74159 10.7335,6.48293 0,3.74044 -6.3573,3.56613 -10.7335,3.56613 -2.2042,0 -6.2112,0.27933 -7.9371,-0.69884 -1.7003,-0.96573 -1.7039,-3.29301 -1.6311,-3.29301 z"
           id="path538-1-6-1-6-2"
           style="fill:#000000;fill-opacity:1;fill-rule:nonzero;stroke:#000000;stroke-width:2.20433;stroke-linecap:butt;stroke-linejoin:round;stroke-miterlimit:4;stroke-dasharray:none;stroke-opacity:1"
           inkscape:connector-curvature="0" />
        <path
           d="m 1243.0216,990.32006 c 0,-4.10674 4.9215,-6.13008 9.5682,-6.05721 4.6454,0.0732 10.7335,2.74159 10.7335,6.48293 0,3.74044 -6.3573,3.56613 -10.7335,3.56613 -2.2042,0 -6.2112,0.27933 -7.9371,-0.69884 -1.7003,-0.96573 -1.7039,-3.29301 -1.6311,-3.29301 z"
           id="path542-8-1-7-3-6"
           style="fill:#a67e33;fill-opacity:1;fill-rule:nonzero;stroke:#000000;stroke-width:1.76346;stroke-linecap:butt;stroke-linejoin:round;stroke-miterlimit:4;stroke-dasharray:none;stroke-opacity:1"
           inkscape:connector-curvature="0" />
        <path
           sodipodi:nodetypes="sssss"
           inkscape:connector-curvature="0"
           style="color:#000000;display:inline;overflow:visible;visibility:visible;fill:#1a1a1a;fill-opacity:1;fill-rule:nonzero;stroke:none;stroke-width:4;marker:none;enable-background:accumulate"
           d="m 1249.1085,972.15392 c 0,3.19142 -1.3204,5.77859 -2.9492,5.77859 -1.6288,0 -2.9492,-2.58717 -2.9492,-5.77859 0,-3.19142 1.3204,-5.77858 2.9492,-5.77858 1.6288,0 2.9492,2.58716 2.9492,5.77858 z"
           id="path3308-6-4-3-3-2-2" />
        <path
           sodipodi:nodetypes="sscsscs"
           id="path3312-6-2-2-6-9-5"
           d="m 1246.1673,966.37397 c -1.6288,0 -2.9479,2.5831 -2.9479,5.77452 0,2.7504 0.9879,5.06094 2.3012,5.6474 -0.6631,-1.06351 -1.084,-2.67727 -1.084,-4.48523 0,-3.19142 1.319,-5.77452 2.9478,-5.77452 0.2251,0 0.436,0.0518 0.6467,0.14527 -0.5076,-0.81052 -1.1575,-1.30744 -1.8638,-1.30744 z"
           style="color:#000000;display:inline;overflow:visible;visibility:visible;fill:#000000;fill-opacity:1;fill-rule:nonzero;stroke:none;stroke-width:4;marker:none;enable-background:accumulate"
           inkscape:connector-curvature="0" />
        <path
           sodipodi:nodetypes="sssss"
           inkscape:connector-curvature="0"
           style="color:#000000;display:inline;overflow:visible;visibility:visible;fill:#1a1a1a;fill-opacity:1;fill-rule:nonzero;stroke:none;stroke-width:4;marker:none;enable-background:accumulate"
           d="m 1241.3682,972.14933 c 0,3.19142 -1.3204,5.77859 -2.9493,5.77859 -1.6288,0 -2.9492,-2.58717 -2.9492,-5.77859 0,-3.19143 1.3204,-5.77859 2.9492,-5.77859 1.6289,0 2.9493,2.58716 2.9493,5.77859 z"
           id="path3308-6-8-1-0-0-0-2" />
        <path
           sodipodi:nodetypes="sscsscs"
           id="path3312-6-9-0-8-5-7-4"
           d="m 1238.4269,966.36937 c -1.6288,0 -2.9479,2.58311 -2.9479,5.77453 0,2.75039 0.988,5.06094 2.3013,5.64741 -0.6632,-1.06353 -1.0841,-2.67729 -1.0841,-4.48524 0,-3.19143 1.319,-5.77453 2.9479,-5.77453 0.2251,0 0.436,0.0518 0.6466,0.14528 -0.5076,-0.81052 -1.1574,-1.30745 -1.8638,-1.30745 z"
           style="color:#000000;display:inline;overflow:visible;visibility:visible;fill:#000000;fill-opacity:1;fill-rule:nonzero;stroke:none;stroke-width:4;marker:none;enable-background:accumulate"
           inkscape:connector-curvature="0" />
        <path
           style="opacity:0.3;fill:#000000;fill-opacity:1;stroke:none"
           d="m 1259.8795,986.97487 c -0.1667,3.16667 -3.5833,6.20833 -10.625,6.875 h 10 l 3.75,-1.625 -0.125,-3 z"
           id="path8730-0-4-4-0-0"
           inkscape:connector-curvature="0"
           sodipodi:nodetypes="cccccc" />
      </g>
      <path
         id="path3298-6-5-2-4"
         d="m 1686.9665,538.2123 c 0,4.0048 -12.9709,7.2512 -28.9714,7.2512 -16.0004,0 -28.9713,-3.2464 -28.9713,-7.2512 0,-4.0046 12.9709,-7.2511 28.9713,-7.2511 16.0005,0 28.9714,3.2465 28.9714,7.2511 z"
         style="color:#000000;display:inline;overflow:visible;visibility:visible;fill:none;stroke:#6ac1ff;stroke-width:3.18536;stroke-linecap:round;stroke-linejoin:round;stroke-miterlimit:4;stroke-dashoffset:0;stroke-opacity:1;marker:none;enable-background:accumulate"
         inkscape:connector-curvature="0" />
      <path
         style="color:#000000;display:inline;overflow:visible;visibility:visible;fill:none;stroke:#4a9ce6;stroke-width:3.18536;stroke-linecap:round;stroke-linejoin:round;stroke-miterlimit:4;stroke-dasharray:none;stroke-dashoffset:0;stroke-opacity:1;marker:none;enable-background:accumulate"
         d="m 1658.0459,527.7452 c -21.042,0 -38.1034,5.005 -38.1034,11.165 0,6.1599 17.0614,11.1341 38.1034,11.1341 21.0418,0 38.1033,-4.9742 38.1033,-11.1341 0,-6.16 -17.0615,-11.165 -38.1033,-11.165 z"
         id="path3300-9-8-3-3"
         inkscape:connector-curvature="0"
         sodipodi:nodetypes="sssss" />
      <g
         id="g8744-1-2-0-2"
         transform="matrix(1.2741451,0,0,1.2741451,71.683243,-728.0629)">
        <path
           d="m 1227.6825,990.32006 c 0,-4.10674 4.9224,-6.13008 9.5679,-6.05721 4.6456,0.0732 10.7334,2.74159 10.7334,6.48293 0,3.74044 -6.3572,3.56613 -10.7334,3.56613 -2.2043,0 -6.2112,0.27933 -7.9355,-0.69884 -1.7003,-0.96573 -1.7055,-3.29301 -1.6324,-3.29301 z"
           id="path468-4-1-4-0"
           style="fill:#000000;fill-opacity:1;fill-rule:nonzero;stroke:#000000;stroke-width:2.20433;stroke-linecap:butt;stroke-linejoin:round;stroke-miterlimit:4;stroke-dasharray:none;stroke-opacity:1"
           inkscape:connector-curvature="0" />
        <path
           d="m 1227.6825,990.32006 c 0,-4.10674 4.9224,-6.13008 9.5679,-6.05721 4.6456,0.0732 10.7334,2.74159 10.7334,6.48293 0,3.74044 -6.3572,3.56613 -10.7334,3.56613 -2.2043,0 -6.2112,0.27933 -7.9355,-0.69884 -1.7003,-0.96573 -1.7055,-3.29301 -1.6324,-3.29301 z"
           id="path472-7-0-6-5"
           style="fill:#a67e33;fill-opacity:1;fill-rule:nonzero;stroke:#000000;stroke-width:1.76346;stroke-linecap:butt;stroke-linejoin:round;stroke-miterlimit:4;stroke-dasharray:none;stroke-opacity:1"
           inkscape:connector-curvature="0" />
        <path
           d="m 1262.264,973.83207 c 0,10.16936 -8.2434,18.41259 -18.4125,18.41259 -10.1695,0 -18.4129,-8.24323 -18.4129,-18.41259 0,-10.1694 8.2434,-18.41293 18.4129,-18.41293 10.1691,0 18.4125,8.24353 18.4125,18.41293 z"
           id="path524-8-2-0-1"
           style="fill:#000000;fill-opacity:1;fill-rule:evenodd;stroke:#000000;stroke-width:2.9503;stroke-linecap:butt;stroke-linejoin:round;stroke-miterlimit:4;stroke-dasharray:none;stroke-opacity:1"
           inkscape:connector-curvature="0" />
        <path
           d="m 1262.264,973.83207 c 0,10.16936 -8.2434,18.41259 -18.4125,18.41259 -10.1695,0 -18.4129,-8.24323 -18.4129,-18.41259 0,-10.1694 8.2434,-18.41293 18.4129,-18.41293 10.1691,0 18.4125,8.24353 18.4125,18.41293 z"
           id="path528-4-3-9-8"
           style="fill:#ffa500;fill-opacity:1;fill-rule:evenodd;stroke:#000000;stroke-width:1.31125;stroke-linecap:butt;stroke-linejoin:miter;stroke-miterlimit:4;stroke-dasharray:none;stroke-opacity:1"
           inkscape:connector-curvature="0" />
        <path
           inkscape:connector-curvature="0"
           style="opacity:0.3;fill:#d40000;fill-opacity:1;fill-rule:evenodd;stroke:none"
           id="path530-6-0-0-5"
           d="m 1259.611,965.67966 c 0.1067,0.81406 0.2052,1.63468 0.2052,2.47993 0,10.49872 -8.5125,19.03322 -19.0126,19.03322 -4.8301,0 -9.1847,-1.86446 -12.5391,-4.83508 3.0222,5.51853 8.8526,9.28056 15.5906,9.28056 9.8386,0 17.7845,-7.96528 17.7845,-17.80359 0,-2.95063 -0.7602,-5.70596 -2.0286,-8.15504 z" />
        <path
           d="m 1243.0216,990.32006 c 0,-4.10674 4.9225,-6.13008 9.5682,-6.05721 4.6454,0.0732 10.7335,2.74159 10.7335,6.48293 0,3.74044 -6.3573,3.56613 -10.7335,3.56613 -2.2042,0 -6.2112,0.27933 -7.9371,-0.69884 -1.7003,-0.96573 -1.7039,-3.29301 -1.6311,-3.29301 z"
           id="path538-1-6-1-6"
           style="fill:#000000;fill-opacity:1;fill-rule:nonzero;stroke:#000000;stroke-width:2.20433;stroke-linecap:butt;stroke-linejoin:round;stroke-miterlimit:4;stroke-dasharray:none;stroke-opacity:1"
           inkscape:connector-curvature="0" />
        <path
           d="m 1243.0216,990.32006 c 0,-4.10674 4.9215,-6.13008 9.5682,-6.05721 4.6454,0.0732 10.7335,2.74159 10.7335,6.48293 0,3.74044 -6.3573,3.56613 -10.7335,3.56613 -2.2042,0 -6.2112,0.27933 -7.9371,-0.69884 -1.7003,-0.96573 -1.7039,-3.29301 -1.6311,-3.29301 z"
           id="path542-8-1-7-3"
           style="fill:#a67e33;fill-opacity:1;fill-rule:nonzero;stroke:#000000;stroke-width:1.76347;stroke-linecap:butt;stroke-linejoin:round;stroke-miterlimit:4;stroke-dasharray:none;stroke-opacity:1"
           inkscape:connector-curvature="0" />
        <path
           sodipodi:nodetypes="sssss"
           inkscape:connector-curvature="0"
           style="color:#000000;display:inline;overflow:visible;visibility:visible;fill:#1a1a1a;fill-opacity:1;fill-rule:nonzero;stroke:none;stroke-width:4;marker:none;enable-background:accumulate"
           d="m 1250.3985,972.41196 c 0,3.19142 -1.3204,5.77859 -2.9492,5.77859 -1.6288,0 -2.9492,-2.58717 -2.9492,-5.77859 0,-3.19142 1.3204,-5.77858 2.9492,-5.77858 1.6288,0 2.9492,2.58716 2.9492,5.77858 z"
           id="path3308-6-4-3-3-2" />
        <path
           sodipodi:nodetypes="sscsscs"
           id="path3312-6-2-2-6-9"
           d="m 1247.4573,966.63201 c -1.6288,0 -2.9479,2.5831 -2.9479,5.77452 0,2.7504 0.9879,5.06094 2.3012,5.6474 -0.6631,-1.06351 -1.084,-2.67727 -1.084,-4.48523 0,-3.19142 1.319,-5.77452 2.9478,-5.77452 0.2251,0 0.436,0.0518 0.6467,0.14527 -0.5076,-0.81052 -1.1575,-1.30744 -1.8638,-1.30744 z"
           style="color:#000000;display:inline;overflow:visible;visibility:visible;fill:#000000;fill-opacity:1;fill-rule:nonzero;stroke:none;stroke-width:4;marker:none;enable-background:accumulate"
           inkscape:connector-curvature="0" />
        <path
           sodipodi:nodetypes="sssss"
           inkscape:connector-curvature="0"
           style="color:#000000;display:inline;overflow:visible;visibility:visible;fill:#1a1a1a;fill-opacity:1;fill-rule:nonzero;stroke:none;stroke-width:4;marker:none;enable-background:accumulate"
           d="m 1242.6582,972.40737 c 0,3.19142 -1.3204,5.77859 -2.9493,5.77859 -1.6288,0 -2.9492,-2.58717 -2.9492,-5.77859 0,-3.19143 1.3204,-5.77859 2.9492,-5.77859 1.6289,0 2.9493,2.58716 2.9493,5.77859 z"
           id="path3308-6-8-1-0-0-0" />
        <path
           sodipodi:nodetypes="sscsscs"
           id="path3312-6-9-0-8-5-7"
           d="m 1239.7169,966.62741 c -1.6288,0 -2.9479,2.58311 -2.9479,5.77453 0,2.75039 0.988,5.06094 2.3013,5.64741 -0.6632,-1.06353 -1.0841,-2.67729 -1.0841,-4.48524 0,-3.19143 1.319,-5.77453 2.9479,-5.77453 0.2251,0 0.436,0.0518 0.6466,0.14528 -0.5076,-0.81052 -1.1574,-1.30745 -1.8638,-1.30745 z"
           style="color:#000000;display:inline;overflow:visible;visibility:visible;fill:#000000;fill-opacity:1;fill-rule:nonzero;stroke:none;stroke-width:4;marker:none;enable-background:accumulate"
           inkscape:connector-curvature="0" />
        <path
           style="opacity:0.3;fill:#000000;fill-opacity:1;stroke:none"
           d="m 1259.8795,986.97487 c -0.1667,3.16667 -3.5833,6.20833 -10.625,6.875 h 10 l 3.75,-1.625 -0.125,-3 z"
           id="path8730-0-4-4-0"
           inkscape:connector-curvature="0"
           sodipodi:nodetypes="cccccc" />
      </g>
    </g>
  </g>
</svg>
