<?xml version="1.0" encoding="UTF-8" standalone="no"?>
<!-- Created with Inkscape (http://www.inkscape.org/) -->

<svg
   viewBox="0 0 214.71992 154.55122"
   version="1.1"
   id="svg1"
   xmlns="http://www.w3.org/2000/svg"
   xmlns:svg="http://www.w3.org/2000/svg">
  <defs
     id="defs1" />
  <g
     id="layer1"
     transform="translate(-32.279183,-22.489583)">
    <g
       id="g11473"
       transform="matrix(1.0422748,0,0,1.0422748,-1741.7427,-670.14903)">
      <path
         id="path3298-6-5-2-4-0-8-3-1"
         d="m 1838.789,683.75516 c 0,1.51405 -4.9038,2.74138 -10.953,2.74138 -6.049,0 -10.9528,-1.22733 -10.9528,-2.74138 0,-1.51398 4.9038,-2.74135 10.9528,-2.74135 6.0492,0 10.953,1.22737 10.953,2.74135 z"
         style="color:#000000;display:inline;overflow:visible;visibility:visible;fill:none;stroke:#6ac1ff;stroke-width:1.20426;stroke-linecap:round;stroke-linejoin:round;stroke-miterlimit:4;stroke-dashoffset:0;stroke-opacity:1;marker:none;enable-background:accumulate" />
      <path
         style="color:#000000;display:inline;overflow:visible;visibility:visible;fill:none;stroke:#4a9ce6;stroke-width:1.20426;stroke-linecap:round;stroke-linejoin:round;stroke-miterlimit:4;stroke-dasharray:none;stroke-dashoffset:0;stroke-opacity:1;marker:none;enable-background:accumulate"
         d="m 1827.8553,679.79797 c -7.9551,0 -14.4055,1.89219 -14.4055,4.22104 0,2.32881 6.4504,4.20935 14.4055,4.20935 7.9551,0 14.4053,-1.88054 14.4053,-4.20935 0,-2.32885 -6.4502,-4.22104 -14.4053,-4.22104 z"
         id="path3300-9-8-3-3-9-8-6-0" />
      <g
         id="g8744-1-2-0-2-5-6-9-5"
         transform="matrix(0.48170278,0,0,0.48170278,1228.1156,205.02763)">
        <path
           d="m 1227.6825,990.32006 c 0,-4.10674 4.9224,-6.13008 9.5679,-6.05721 4.6456,0.0732 10.7334,2.74159 10.7334,6.48293 0,3.74044 -6.3572,3.56613 -10.7334,3.56613 -2.2043,0 -6.2112,0.27933 -7.9355,-0.69884 -1.7003,-0.96573 -1.7055,-3.29301 -1.6324,-3.29301 z"
           id="path468-4-1-4-0-0-2-9-7"
           style="fill:#000000;fill-opacity:1;fill-rule:nonzero;stroke:#000000;stroke-width:2.20433;stroke-linecap:butt;stroke-linejoin:round;stroke-miterlimit:4;stroke-dasharray:none;stroke-opacity:1" />
        <path
           d="m 1227.6825,990.32006 c 0,-4.10674 4.9224,-6.13008 9.5679,-6.05721 4.6456,0.0732 10.7334,2.74159 10.7334,6.48293 0,3.74044 -6.3572,3.56613 -10.7334,3.56613 -2.2043,0 -6.2112,0.27933 -7.9355,-0.69884 -1.7003,-0.96573 -1.7055,-3.29301 -1.6324,-3.29301 z"
           id="path472-7-0-6-5-5-0-6-7"
           style="fill:#a67e33;fill-opacity:1;fill-rule:nonzero;stroke:#000000;stroke-width:1.76346;stroke-linecap:butt;stroke-linejoin:round;stroke-miterlimit:4;stroke-dasharray:none;stroke-opacity:1" />
        <path
           d="m 1262.264,973.83207 c 0,10.16936 -8.2434,18.41259 -18.4125,18.41259 -10.1695,0 -18.4129,-8.24323 -18.4129,-18.41259 0,-10.1694 8.2434,-18.41293 18.4129,-18.41293 10.1691,0 18.4125,8.24353 18.4125,18.41293 z"
           id="path524-8-2-0-1-2-1-4-0"
           style="fill:#000000;fill-opacity:1;fill-rule:evenodd;stroke:#000000;stroke-width:2.9503;stroke-linecap:butt;stroke-linejoin:round;stroke-miterlimit:4;stroke-dasharray:none;stroke-opacity:1" />
        <path
           d="m 1262.264,973.83207 c 0,10.16936 -8.2434,18.41259 -18.4125,18.41259 -10.1695,0 -18.4129,-8.24323 -18.4129,-18.41259 0,-10.1694 8.2434,-18.41293 18.4129,-18.41293 10.1691,0 18.4125,8.24353 18.4125,18.41293 z"
           id="path528-4-3-9-8-3-4-1-0"
           style="fill:#ffa500;fill-opacity:1;fill-rule:evenodd;stroke:#000000;stroke-width:1.31125;stroke-linecap:butt;stroke-linejoin:miter;stroke-miterlimit:4;stroke-dasharray:none;stroke-opacity:1" />
        <path
           style="opacity:0.3;fill:#d40000;fill-opacity:1;fill-rule:evenodd;stroke:none"
           id="path530-6-0-0-5-4-8-9-4"
           d="m 1259.611,965.67966 c 0.1067,0.81406 0.2052,1.63468 0.2052,2.47993 0,10.49872 -8.5125,19.03322 -19.0126,19.03322 -4.8301,0 -9.1847,-1.86446 -12.5391,-4.83508 3.0222,5.51853 8.8526,9.28056 15.5906,9.28056 9.8386,0 17.7845,-7.96528 17.7845,-17.80359 0,-2.95063 -0.7602,-5.70596 -2.0286,-8.15504 z" />
        <path
           d="m 1243.0216,990.32006 c 0,-4.10674 4.9225,-6.13008 9.5682,-6.05721 4.6454,0.0732 10.7335,2.74159 10.7335,6.48293 0,3.74044 -6.3573,3.56613 -10.7335,3.56613 -2.2042,0 -6.2112,0.27933 -7.9371,-0.69884 -1.7003,-0.96573 -1.7039,-3.29301 -1.6311,-3.29301 z"
           id="path538-1-6-1-6-2-6-1-8"
           style="fill:#000000;fill-opacity:1;fill-rule:nonzero;stroke:#000000;stroke-width:2.20433;stroke-linecap:butt;stroke-linejoin:round;stroke-miterlimit:4;stroke-dasharray:none;stroke-opacity:1" />
        <path
           d="m 1243.0216,990.32006 c 0,-4.10674 4.9215,-6.13008 9.5682,-6.05721 4.6454,0.0732 10.7335,2.74159 10.7335,6.48293 0,3.74044 -6.3573,3.56613 -10.7335,3.56613 -2.2042,0 -6.2112,0.27933 -7.9371,-0.69884 -1.7003,-0.96573 -1.7039,-3.29301 -1.6311,-3.29301 z"
           id="path542-8-1-7-3-6-0-5-3"
           style="fill:#a67e33;fill-opacity:1;fill-rule:nonzero;stroke:#000000;stroke-width:1.76346;stroke-linecap:butt;stroke-linejoin:round;stroke-miterlimit:4;stroke-dasharray:none;stroke-opacity:1" />
        <path
           style="color:#000000;display:inline;overflow:visible;visibility:visible;fill:#1a1a1a;fill-opacity:1;fill-rule:nonzero;stroke:none;stroke-width:4;marker:none;enable-background:accumulate"
           d="m 1247.8295,971.31102 c 0,3.19142 -1.3204,5.77859 -2.9492,5.77859 -1.6288,0 -2.9492,-2.58717 -2.9492,-5.77859 0,-3.19142 1.3204,-5.77858 2.9492,-5.77858 1.6288,0 2.9492,2.58716 2.9492,5.77858 z"
           id="path3308-6-4-3-3-2-2-4-5-2" />
        <path
           id="path3312-6-2-2-6-9-5-9-5-1"
           d="m 1244.8883,965.53107 c -1.6288,0 -2.9479,2.5831 -2.9479,5.77452 0,2.7504 0.9879,5.06094 2.3012,5.6474 -0.6631,-1.06351 -1.084,-2.67727 -1.084,-4.48523 0,-3.19142 1.319,-5.77452 2.9478,-5.77452 0.2251,0 0.436,0.0518 0.6467,0.14527 -0.5076,-0.81052 -1.1575,-1.30744 -1.8638,-1.30744 z"
           style="color:#000000;display:inline;overflow:visible;visibility:visible;fill:#000000;fill-opacity:1;fill-rule:nonzero;stroke:none;stroke-width:4;marker:none;enable-background:accumulate" />
        <path
           style="color:#000000;display:inline;overflow:visible;visibility:visible;fill:#1a1a1a;fill-opacity:1;fill-rule:nonzero;stroke:none;stroke-width:4;marker:none;enable-background:accumulate"
           d="m 1240.0892,971.30643 c 0,3.19142 -1.3204,5.77859 -2.9493,5.77859 -1.6288,0 -2.9492,-2.58717 -2.9492,-5.77859 0,-3.19143 1.3204,-5.77859 2.9492,-5.77859 1.6289,0 2.9493,2.58716 2.9493,5.77859 z"
           id="path3308-6-8-1-0-0-0-2-1-2-7" />
        <path
           id="path3312-6-9-0-8-5-7-4-4-9-6"
           d="m 1237.1479,965.52647 c -1.6288,0 -2.9479,2.58311 -2.9479,5.77453 0,2.75039 0.988,5.06094 2.3013,5.64741 -0.6632,-1.06353 -1.0841,-2.67729 -1.0841,-4.48524 0,-3.19143 1.319,-5.77453 2.9479,-5.77453 0.2251,0 0.436,0.0518 0.6466,0.14528 -0.5076,-0.81052 -1.1574,-1.30745 -1.8638,-1.30745 z"
           style="color:#000000;display:inline;overflow:visible;visibility:visible;fill:#000000;fill-opacity:1;fill-rule:nonzero;stroke:none;stroke-width:4;marker:none;enable-background:accumulate" />
        <path
           style="opacity:0.3;fill:#000000;fill-opacity:1;stroke:none"
           d="m 1259.8795,986.97487 c -0.1667,3.16667 -3.5833,6.20833 -10.625,6.875 h 10 l 3.75,-1.625 -0.125,-3 z"
           id="path8730-0-4-4-0-0-8-9-6" />
      </g>
      <path
         id="path3298-6-5-2-4-0-8-9"
         d="m 1792.8057,705.09237 c 0,2.70431 -8.7589,4.89651 -19.5636,4.89651 -10.8045,0 -19.5633,-2.1922 -19.5633,-4.89651 0,-2.70419 8.7588,-4.89645 19.5633,-4.89645 10.8047,0 19.5636,2.19226 19.5636,4.89645 z"
         style="color:#000000;display:inline;overflow:visible;visibility:visible;fill:none;stroke:#6ac1ff;stroke-width:2.15098;stroke-linecap:round;stroke-linejoin:round;stroke-miterlimit:4;stroke-dashoffset:0;stroke-opacity:1;marker:none;enable-background:accumulate" />
      <path
         style="color:#000000;display:inline;overflow:visible;visibility:visible;fill:none;stroke:#4a9ce6;stroke-width:2.15098;stroke-linecap:round;stroke-linejoin:round;stroke-miterlimit:4;stroke-dasharray:none;stroke-dashoffset:0;stroke-opacity:1;marker:none;enable-background:accumulate"
         d="m 1773.2765,698.02424 c -14.2091,0 -25.7303,3.37973 -25.7303,7.53939 0,4.15961 11.5212,7.51853 25.7303,7.51853 14.209,0 25.7299,-3.35892 25.7299,-7.51853 0,-4.15966 -11.5209,-7.53939 -25.7299,-7.53939 z"
         id="path3300-9-8-3-3-9-8-3" />
      <g
         id="g8744-1-2-0-2-5-6-4"
         transform="matrix(0.86039199,0,0,0.86039199,702.05313,-149.98538)">
        <path
           d="m 1227.6825,990.32006 c 0,-4.10674 4.9224,-6.13008 9.5679,-6.05721 4.6456,0.0732 10.7334,2.74159 10.7334,6.48293 0,3.74044 -6.3572,3.56613 -10.7334,3.56613 -2.2043,0 -6.2112,0.27933 -7.9355,-0.69884 -1.7003,-0.96573 -1.7055,-3.29301 -1.6324,-3.29301 z"
           id="path468-4-1-4-0-0-2-0"
           style="fill:#000000;fill-opacity:1;fill-rule:nonzero;stroke:#000000;stroke-width:2.20433;stroke-linecap:butt;stroke-linejoin:round;stroke-miterlimit:4;stroke-dasharray:none;stroke-opacity:1" />
        <path
           d="m 1227.6825,990.32006 c 0,-4.10674 4.9224,-6.13008 9.5679,-6.05721 4.6456,0.0732 10.7334,2.74159 10.7334,6.48293 0,3.74044 -6.3572,3.56613 -10.7334,3.56613 -2.2043,0 -6.2112,0.27933 -7.9355,-0.69884 -1.7003,-0.96573 -1.7055,-3.29301 -1.6324,-3.29301 z"
           id="path472-7-0-6-5-5-0-0"
           style="fill:#a67e33;fill-opacity:1;fill-rule:nonzero;stroke:#000000;stroke-width:1.76347;stroke-linecap:butt;stroke-linejoin:round;stroke-miterlimit:4;stroke-dasharray:none;stroke-opacity:1" />
        <path
           d="m 1262.264,973.83207 c 0,10.16936 -8.2434,18.41259 -18.4125,18.41259 -10.1695,0 -18.4129,-8.24323 -18.4129,-18.41259 0,-10.1694 8.2434,-18.41293 18.4129,-18.41293 10.1691,0 18.4125,8.24353 18.4125,18.41293 z"
           id="path524-8-2-0-1-2-1-8"
           style="fill:#000000;fill-opacity:1;fill-rule:evenodd;stroke:#000000;stroke-width:2.9503;stroke-linecap:butt;stroke-linejoin:round;stroke-miterlimit:4;stroke-dasharray:none;stroke-opacity:1" />
        <path
           d="m 1262.264,973.83207 c 0,10.16936 -8.2434,18.41259 -18.4125,18.41259 -10.1695,0 -18.4129,-8.24323 -18.4129,-18.41259 0,-10.1694 8.2434,-18.41293 18.4129,-18.41293 10.1691,0 18.4125,8.24353 18.4125,18.41293 z"
           id="path528-4-3-9-8-3-4-17"
           style="fill:#ffa500;fill-opacity:1;fill-rule:evenodd;stroke:#000000;stroke-width:1.31125;stroke-linecap:butt;stroke-linejoin:miter;stroke-miterlimit:4;stroke-dasharray:none;stroke-opacity:1" />
        <path
           style="opacity:0.3;fill:#d40000;fill-opacity:1;fill-rule:evenodd;stroke:none"
           id="path530-6-0-0-5-4-8-4"
           d="m 1259.611,965.67966 c 0.1067,0.81406 0.2052,1.63468 0.2052,2.47993 0,10.49872 -8.5125,19.03322 -19.0126,19.03322 -4.8301,0 -9.1847,-1.86446 -12.5391,-4.83508 3.0222,5.51853 8.8526,9.28056 15.5906,9.28056 9.8386,0 17.7845,-7.96528 17.7845,-17.80359 0,-2.95063 -0.7602,-5.70596 -2.0286,-8.15504 z" />
        <path
           d="m 1243.0216,990.32006 c 0,-4.10674 4.9225,-6.13008 9.5682,-6.05721 4.6454,0.0732 10.7335,2.74159 10.7335,6.48293 0,3.74044 -6.3573,3.56613 -10.7335,3.56613 -2.2042,0 -6.2112,0.27933 -7.9371,-0.69884 -1.7003,-0.96573 -1.7039,-3.29301 -1.6311,-3.29301 z"
           id="path538-1-6-1-6-2-6-2"
           style="fill:#000000;fill-opacity:1;fill-rule:nonzero;stroke:#000000;stroke-width:2.20433;stroke-linecap:butt;stroke-linejoin:round;stroke-miterlimit:4;stroke-dasharray:none;stroke-opacity:1" />
        <path
           d="m 1243.0216,990.32006 c 0,-4.10674 4.9215,-6.13008 9.5682,-6.05721 4.6454,0.0732 10.7335,2.74159 10.7335,6.48293 0,3.74044 -6.3573,3.56613 -10.7335,3.56613 -2.2042,0 -6.2112,0.27933 -7.9371,-0.69884 -1.7003,-0.96573 -1.7039,-3.29301 -1.6311,-3.29301 z"
           id="path542-8-1-7-3-6-0-51"
           style="fill:#a67e33;fill-opacity:1;fill-rule:nonzero;stroke:#000000;stroke-width:1.76346;stroke-linecap:butt;stroke-linejoin:round;stroke-miterlimit:4;stroke-dasharray:none;stroke-opacity:1" />
        <path
           style="color:#000000;display:inline;overflow:visible;visibility:visible;fill:#1a1a1a;fill-opacity:1;fill-rule:nonzero;stroke:none;stroke-width:4;marker:none;enable-background:accumulate"
           d="m 1253.5811,973.64628 c 0,3.19142 -1.3204,5.77859 -2.9492,5.77859 -1.6288,0 -2.9492,-2.58717 -2.9492,-5.77859 0,-3.19142 1.3204,-5.77858 2.9492,-5.77858 1.6288,0 2.9492,2.58716 2.9492,5.77858 z"
           id="path3308-6-4-3-3-2-2-4-4" />
        <path
           id="path3312-6-2-2-6-9-5-9-1"
           d="m 1250.6399,967.86633 c -1.6288,0 -2.9479,2.5831 -2.9479,5.77452 0,2.7504 0.9879,5.06094 2.3012,5.6474 -0.6631,-1.06351 -1.084,-2.67727 -1.084,-4.48523 0,-3.19142 1.319,-5.77452 2.9478,-5.77452 0.2251,0 0.436,0.0518 0.6467,0.14527 -0.5076,-0.81052 -1.1575,-1.30744 -1.8638,-1.30744 z"
           style="color:#000000;display:inline;overflow:visible;visibility:visible;fill:#000000;fill-opacity:1;fill-rule:nonzero;stroke:none;stroke-width:4;marker:none;enable-background:accumulate" />
        <path
           style="color:#000000;display:inline;overflow:visible;visibility:visible;fill:#1a1a1a;fill-opacity:1;fill-rule:nonzero;stroke:none;stroke-width:4;marker:none;enable-background:accumulate"
           d="m 1245.8408,973.64169 c 0,3.19142 -1.3204,5.77859 -2.9493,5.77859 -1.6288,0 -2.9492,-2.58717 -2.9492,-5.77859 0,-3.19143 1.3204,-5.77859 2.9492,-5.77859 1.6289,0 2.9493,2.58716 2.9493,5.77859 z"
           id="path3308-6-8-1-0-0-0-2-1-6" />
        <path
           id="path3312-6-9-0-8-5-7-4-4-8"
           d="m 1242.8995,967.86173 c -1.6288,0 -2.9479,2.58311 -2.9479,5.77453 0,2.75039 0.988,5.06094 2.3013,5.64741 -0.6632,-1.06353 -1.0841,-2.67729 -1.0841,-4.48524 0,-3.19143 1.319,-5.77453 2.9479,-5.77453 0.2251,0 0.436,0.0518 0.6466,0.14528 -0.5076,-0.81052 -1.1574,-1.30745 -1.8638,-1.30745 z"
           style="color:#000000;display:inline;overflow:visible;visibility:visible;fill:#000000;fill-opacity:1;fill-rule:nonzero;stroke:none;stroke-width:4;marker:none;enable-background:accumulate" />
        <path
           style="opacity:0.3;fill:#000000;fill-opacity:1;stroke:none"
           d="m 1259.8795,986.97487 c -0.1667,3.16667 -3.5833,6.20833 -10.625,6.875 h 10 l 3.75,-1.625 -0.125,-3 z"
           id="path8730-0-4-4-0-0-8-2" />
      </g>
      <path
         id="path3298-6-5-2-4-0-86"
         d="m 1872.1951,705.19594 c 0,2.48057 -8.0343,4.4914 -17.945,4.4914 -9.9107,0 -17.9448,-2.01083 -17.9448,-4.4914 0,-2.48045 8.0341,-4.49134 17.9448,-4.49134 9.9107,0 17.945,2.01089 17.945,4.49134 z"
         style="color:#000000;display:inline;overflow:visible;visibility:visible;fill:none;stroke:#6ac1ff;stroke-width:1.97302;stroke-linecap:round;stroke-linejoin:round;stroke-miterlimit:4;stroke-dashoffset:0;stroke-opacity:1;marker:none;enable-background:accumulate" />
      <path
         style="color:#000000;display:inline;overflow:visible;visibility:visible;fill:none;stroke:#4a9ce6;stroke-width:1.97302;stroke-linecap:round;stroke-linejoin:round;stroke-miterlimit:4;stroke-dasharray:none;stroke-dashoffset:0;stroke-opacity:1;marker:none;enable-background:accumulate"
         d="m 1854.2815,698.7126 c -13.0334,0 -23.6013,3.10011 -23.6013,6.91562 0,3.81546 10.5679,6.89648 23.6013,6.89648 13.0335,0 23.6013,-3.08102 23.6013,-6.89648 0,-3.81551 -10.5678,-6.91562 -23.6013,-6.91562 z"
         id="path3300-9-8-3-3-9-9" />
      <g
         id="g8744-1-2-0-2-5-5"
         transform="matrix(0.78920714,0,0,0.78920714,871.68636,-79.136623)">
        <path
           d="m 1227.6825,990.32006 c 0,-4.10674 4.9224,-6.13008 9.5679,-6.05721 4.6456,0.0732 10.7334,2.74159 10.7334,6.48293 0,3.74044 -6.3572,3.56613 -10.7334,3.56613 -2.2043,0 -6.2112,0.27933 -7.9355,-0.69884 -1.7003,-0.96573 -1.7055,-3.29301 -1.6324,-3.29301 z"
           id="path468-4-1-4-0-0-8"
           style="fill:#000000;fill-opacity:1;fill-rule:nonzero;stroke:#000000;stroke-width:2.20433;stroke-linecap:butt;stroke-linejoin:round;stroke-miterlimit:4;stroke-dasharray:none;stroke-opacity:1" />
        <path
           d="m 1227.6825,990.32006 c 0,-4.10674 4.9224,-6.13008 9.5679,-6.05721 4.6456,0.0732 10.7334,2.74159 10.7334,6.48293 0,3.74044 -6.3572,3.56613 -10.7334,3.56613 -2.2043,0 -6.2112,0.27933 -7.9355,-0.69884 -1.7003,-0.96573 -1.7055,-3.29301 -1.6324,-3.29301 z"
           id="path472-7-0-6-5-5-9"
           style="fill:#a67e33;fill-opacity:1;fill-rule:nonzero;stroke:#000000;stroke-width:1.76346;stroke-linecap:butt;stroke-linejoin:round;stroke-miterlimit:4;stroke-dasharray:none;stroke-opacity:1" />
        <path
           d="m 1262.264,973.83207 c 0,10.16936 -8.2434,18.41259 -18.4125,18.41259 -10.1695,0 -18.4129,-8.24323 -18.4129,-18.41259 0,-10.1694 8.2434,-18.41293 18.4129,-18.41293 10.1691,0 18.4125,8.24353 18.4125,18.41293 z"
           id="path524-8-2-0-1-2-9"
           style="fill:#000000;fill-opacity:1;fill-rule:evenodd;stroke:#000000;stroke-width:2.9503;stroke-linecap:butt;stroke-linejoin:round;stroke-miterlimit:4;stroke-dasharray:none;stroke-opacity:1" />
        <path
           d="m 1262.264,973.83207 c 0,10.16936 -8.2434,18.41259 -18.4125,18.41259 -10.1695,0 -18.4129,-8.24323 -18.4129,-18.41259 0,-10.1694 8.2434,-18.41293 18.4129,-18.41293 10.1691,0 18.4125,8.24353 18.4125,18.41293 z"
           id="path528-4-3-9-8-3-9"
           style="fill:#ffa500;fill-opacity:1;fill-rule:evenodd;stroke:#000000;stroke-width:1.31125;stroke-linecap:butt;stroke-linejoin:miter;stroke-miterlimit:4;stroke-dasharray:none;stroke-opacity:1" />
        <path
           style="opacity:0.3;fill:#d40000;fill-opacity:1;fill-rule:evenodd;stroke:none"
           id="path530-6-0-0-5-4-3"
           d="m 1259.611,965.67966 c 0.1067,0.81406 0.2052,1.63468 0.2052,2.47993 0,10.49872 -8.5125,19.03322 -19.0126,19.03322 -4.8301,0 -9.1847,-1.86446 -12.5391,-4.83508 3.0222,5.51853 8.8526,9.28056 15.5906,9.28056 9.8386,0 17.7845,-7.96528 17.7845,-17.80359 0,-2.95063 -0.7602,-5.70596 -2.0286,-8.15504 z" />
        <path
           d="m 1243.0216,990.32006 c 0,-4.10674 4.9225,-6.13008 9.5682,-6.05721 4.6454,0.0732 10.7335,2.74159 10.7335,6.48293 0,3.74044 -6.3573,3.56613 -10.7335,3.56613 -2.2042,0 -6.2112,0.27933 -7.9371,-0.69884 -1.7003,-0.96573 -1.7039,-3.29301 -1.6311,-3.29301 z"
           id="path538-1-6-1-6-2-3"
           style="fill:#000000;fill-opacity:1;fill-rule:nonzero;stroke:#000000;stroke-width:2.20433;stroke-linecap:butt;stroke-linejoin:round;stroke-miterlimit:4;stroke-dasharray:none;stroke-opacity:1" />
        <path
           d="m 1243.0216,990.32006 c 0,-4.10674 4.9215,-6.13008 9.5682,-6.05721 4.6454,0.0732 10.7335,2.74159 10.7335,6.48293 0,3.74044 -6.3573,3.56613 -10.7335,3.56613 -2.2042,0 -6.2112,0.27933 -7.9371,-0.69884 -1.7003,-0.96573 -1.7039,-3.29301 -1.6311,-3.29301 z"
           id="path542-8-1-7-3-6-02"
           style="fill:#a67e33;fill-opacity:1;fill-rule:nonzero;stroke:#000000;stroke-width:1.76346;stroke-linecap:butt;stroke-linejoin:round;stroke-miterlimit:4;stroke-dasharray:none;stroke-opacity:1" />
        <path
           style="color:#000000;display:inline;overflow:visible;visibility:visible;fill:#1a1a1a;fill-opacity:1;fill-rule:nonzero;stroke:none;stroke-width:4;marker:none;enable-background:accumulate"
           d="m 1249.1085,972.15392 c 0,3.19142 -1.3204,5.77859 -2.9492,5.77859 -1.6288,0 -2.9492,-2.58717 -2.9492,-5.77859 0,-3.19142 1.3204,-5.77858 2.9492,-5.77858 1.6288,0 2.9492,2.58716 2.9492,5.77858 z"
           id="path3308-6-4-3-3-2-2-2" />
        <path
           id="path3312-6-2-2-6-9-5-7"
           d="m 1246.1673,966.37397 c -1.6288,0 -2.9479,2.5831 -2.9479,5.77452 0,2.7504 0.9879,5.06094 2.3012,5.6474 -0.6631,-1.06351 -1.084,-2.67727 -1.084,-4.48523 0,-3.19142 1.319,-5.77452 2.9478,-5.77452 0.2251,0 0.436,0.0518 0.6467,0.14527 -0.5076,-0.81052 -1.1575,-1.30744 -1.8638,-1.30744 z"
           style="color:#000000;display:inline;overflow:visible;visibility:visible;fill:#000000;fill-opacity:1;fill-rule:nonzero;stroke:none;stroke-width:4;marker:none;enable-background:accumulate" />
        <path
           style="color:#000000;display:inline;overflow:visible;visibility:visible;fill:#1a1a1a;fill-opacity:1;fill-rule:nonzero;stroke:none;stroke-width:4;marker:none;enable-background:accumulate"
           d="m 1241.3682,972.14933 c 0,3.19142 -1.3204,5.77859 -2.9493,5.77859 -1.6288,0 -2.9492,-2.58717 -2.9492,-5.77859 0,-3.19143 1.3204,-5.77859 2.9492,-5.77859 1.6289,0 2.9493,2.58716 2.9493,5.77859 z"
           id="path3308-6-8-1-0-0-0-2-4" />
        <path
           id="path3312-6-9-0-8-5-7-4-7"
           d="m 1238.4269,966.36937 c -1.6288,0 -2.9479,2.58311 -2.9479,5.77453 0,2.75039 0.988,5.06094 2.3013,5.64741 -0.6632,-1.06353 -1.0841,-2.67729 -1.0841,-4.48524 0,-3.19143 1.319,-5.77453 2.9479,-5.77453 0.2251,0 0.436,0.0518 0.6466,0.14528 -0.5076,-0.81052 -1.1574,-1.30745 -1.8638,-1.30745 z"
           style="color:#000000;display:inline;overflow:visible;visibility:visible;fill:#000000;fill-opacity:1;fill-rule:nonzero;stroke:none;stroke-width:4;marker:none;enable-background:accumulate" />
        <path
           style="opacity:0.3;fill:#000000;fill-opacity:1;stroke:none"
           d="m 1259.8795,986.97487 c -0.1667,3.16667 -3.5833,6.20833 -10.625,6.875 h 10 l 3.75,-1.625 -0.125,-3 z"
           id="path8730-0-4-4-0-0-3" />
      </g>
      <path
         id="path3298-6-5-2-4-4"
         d="m 1838.2136,729.44918 c 0,4.0048 -12.9709,7.2512 -28.9714,7.2512 -16.0004,0 -28.9713,-3.2464 -28.9713,-7.2512 0,-4.0046 12.9709,-7.2511 28.9713,-7.2511 16.0005,0 28.9714,3.2465 28.9714,7.2511 z"
         style="color:#000000;display:inline;overflow:visible;visibility:visible;fill:none;stroke:#6ac1ff;stroke-width:3.18536;stroke-linecap:round;stroke-linejoin:round;stroke-miterlimit:4;stroke-dashoffset:0;stroke-opacity:1;marker:none;enable-background:accumulate" />
      <path
         style="color:#000000;display:inline;overflow:visible;visibility:visible;fill:none;stroke:#4a9ce6;stroke-width:3.18536;stroke-linecap:round;stroke-linejoin:round;stroke-miterlimit:4;stroke-dasharray:none;stroke-dashoffset:0;stroke-opacity:1;marker:none;enable-background:accumulate"
         d="m 1809.293,718.98208 c -21.042,0 -38.1034,5.005 -38.1034,11.165 0,6.1599 17.0614,11.1341 38.1034,11.1341 21.0418,0 38.1033,-4.9742 38.1033,-11.1341 0,-6.16 -17.0615,-11.165 -38.1033,-11.165 z"
         id="path3300-9-8-3-3-0" />
      <g
         id="g8744-1-2-0-2-1"
         transform="matrix(1.2741451,0,0,1.2741451,222.93033,-536.8261)">
        <path
           d="m 1227.6825,990.32006 c 0,-4.10674 4.9224,-6.13008 9.5679,-6.05721 4.6456,0.0732 10.7334,2.74159 10.7334,6.48293 0,3.74044 -6.3572,3.56613 -10.7334,3.56613 -2.2043,0 -6.2112,0.27933 -7.9355,-0.69884 -1.7003,-0.96573 -1.7055,-3.29301 -1.6324,-3.29301 z"
           id="path468-4-1-4-0-5"
           style="fill:#000000;fill-opacity:1;fill-rule:nonzero;stroke:#000000;stroke-width:2.20433;stroke-linecap:butt;stroke-linejoin:round;stroke-miterlimit:4;stroke-dasharray:none;stroke-opacity:1" />
        <path
           d="m 1227.6825,990.32006 c 0,-4.10674 4.9224,-6.13008 9.5679,-6.05721 4.6456,0.0732 10.7334,2.74159 10.7334,6.48293 0,3.74044 -6.3572,3.56613 -10.7334,3.56613 -2.2043,0 -6.2112,0.27933 -7.9355,-0.69884 -1.7003,-0.96573 -1.7055,-3.29301 -1.6324,-3.29301 z"
           id="path472-7-0-6-5-7"
           style="fill:#a67e33;fill-opacity:1;fill-rule:nonzero;stroke:#000000;stroke-width:1.76346;stroke-linecap:butt;stroke-linejoin:round;stroke-miterlimit:4;stroke-dasharray:none;stroke-opacity:1" />
        <path
           d="m 1262.264,973.83207 c 0,10.16936 -8.2434,18.41259 -18.4125,18.41259 -10.1695,0 -18.4129,-8.24323 -18.4129,-18.41259 0,-10.1694 8.2434,-18.41293 18.4129,-18.41293 10.1691,0 18.4125,8.24353 18.4125,18.41293 z"
           id="path524-8-2-0-1-8"
           style="fill:#000000;fill-opacity:1;fill-rule:evenodd;stroke:#000000;stroke-width:2.9503;stroke-linecap:butt;stroke-linejoin:round;stroke-miterlimit:4;stroke-dasharray:none;stroke-opacity:1" />
        <path
           d="m 1262.264,973.83207 c 0,10.16936 -8.2434,18.41259 -18.4125,18.41259 -10.1695,0 -18.4129,-8.24323 -18.4129,-18.41259 0,-10.1694 8.2434,-18.41293 18.4129,-18.41293 10.1691,0 18.4125,8.24353 18.4125,18.41293 z"
           id="path528-4-3-9-8-9"
           style="fill:#ffa500;fill-opacity:1;fill-rule:evenodd;stroke:#000000;stroke-width:1.31125;stroke-linecap:butt;stroke-linejoin:miter;stroke-miterlimit:4;stroke-dasharray:none;stroke-opacity:1" />
        <path
           style="opacity:0.3;fill:#d40000;fill-opacity:1;fill-rule:evenodd;stroke:none"
           id="path530-6-0-0-5-2"
           d="m 1259.611,965.67966 c 0.1067,0.81406 0.2052,1.63468 0.2052,2.47993 0,10.49872 -8.5125,19.03322 -19.0126,19.03322 -4.8301,0 -9.1847,-1.86446 -12.5391,-4.83508 3.0222,5.51853 8.8526,9.28056 15.5906,9.28056 9.8386,0 17.7845,-7.96528 17.7845,-17.80359 0,-2.95063 -0.7602,-5.70596 -2.0286,-8.15504 z" />
        <path
           d="m 1243.0216,990.32006 c 0,-4.10674 4.9225,-6.13008 9.5682,-6.05721 4.6454,0.0732 10.7335,2.74159 10.7335,6.48293 0,3.74044 -6.3573,3.56613 -10.7335,3.56613 -2.2042,0 -6.2112,0.27933 -7.9371,-0.69884 -1.7003,-0.96573 -1.7039,-3.29301 -1.6311,-3.29301 z"
           id="path538-1-6-1-6-9"
           style="fill:#000000;fill-opacity:1;fill-rule:nonzero;stroke:#000000;stroke-width:2.20433;stroke-linecap:butt;stroke-linejoin:round;stroke-miterlimit:4;stroke-dasharray:none;stroke-opacity:1" />
        <path
           d="m 1243.0216,990.32006 c 0,-4.10674 4.9215,-6.13008 9.5682,-6.05721 4.6454,0.0732 10.7335,2.74159 10.7335,6.48293 0,3.74044 -6.3573,3.56613 -10.7335,3.56613 -2.2042,0 -6.2112,0.27933 -7.9371,-0.69884 -1.7003,-0.96573 -1.7039,-3.29301 -1.6311,-3.29301 z"
           id="path542-8-1-7-3-4"
           style="fill:#a67e33;fill-opacity:1;fill-rule:nonzero;stroke:#000000;stroke-width:1.76346;stroke-linecap:butt;stroke-linejoin:round;stroke-miterlimit:4;stroke-dasharray:none;stroke-opacity:1" />
        <path
           style="color:#000000;display:inline;overflow:visible;visibility:visible;fill:#1a1a1a;fill-opacity:1;fill-rule:nonzero;stroke:none;stroke-width:4;marker:none;enable-background:accumulate"
           d="m 1250.3985,972.41196 c 0,3.19142 -1.3204,5.77859 -2.9492,5.77859 -1.6288,0 -2.9492,-2.58717 -2.9492,-5.77859 0,-3.19142 1.3204,-5.77858 2.9492,-5.77858 1.6288,0 2.9492,2.58716 2.9492,5.77858 z"
           id="path3308-6-4-3-3-2-5" />
        <path
           id="path3312-6-2-2-6-9-7"
           d="m 1247.4573,966.63201 c -1.6288,0 -2.9479,2.5831 -2.9479,5.77452 0,2.7504 0.9879,5.06094 2.3012,5.6474 -0.6631,-1.06351 -1.084,-2.67727 -1.084,-4.48523 0,-3.19142 1.319,-5.77452 2.9478,-5.77452 0.2251,0 0.436,0.0518 0.6467,0.14527 -0.5076,-0.81052 -1.1575,-1.30744 -1.8638,-1.30744 z"
           style="color:#000000;display:inline;overflow:visible;visibility:visible;fill:#000000;fill-opacity:1;fill-rule:nonzero;stroke:none;stroke-width:4;marker:none;enable-background:accumulate" />
        <path
           style="color:#000000;display:inline;overflow:visible;visibility:visible;fill:#1a1a1a;fill-opacity:1;fill-rule:nonzero;stroke:none;stroke-width:4;marker:none;enable-background:accumulate"
           d="m 1242.6582,972.40737 c 0,3.19142 -1.3204,5.77859 -2.9493,5.77859 -1.6288,0 -2.9492,-2.58717 -2.9492,-5.77859 0,-3.19143 1.3204,-5.77859 2.9492,-5.77859 1.6289,0 2.9493,2.58716 2.9493,5.77859 z"
           id="path3308-6-8-1-0-0-0-4" />
        <path
           id="path3312-6-9-0-8-5-7-7"
           d="m 1239.7169,966.62741 c -1.6288,0 -2.9479,2.58311 -2.9479,5.77453 0,2.75039 0.988,5.06094 2.3013,5.64741 -0.6632,-1.06353 -1.0841,-2.67729 -1.0841,-4.48524 0,-3.19143 1.319,-5.77453 2.9479,-5.77453 0.2251,0 0.436,0.0518 0.6466,0.14528 -0.5076,-0.81052 -1.1574,-1.30745 -1.8638,-1.30745 z"
           style="color:#000000;display:inline;overflow:visible;visibility:visible;fill:#000000;fill-opacity:1;fill-rule:nonzero;stroke:none;stroke-width:4;marker:none;enable-background:accumulate" />
        <path
           style="opacity:0.3;fill:#000000;fill-opacity:1;stroke:none"
           d="m 1259.8795,986.97487 c -0.1667,3.16667 -3.5833,6.20833 -10.625,6.875 h 10 l 3.75,-1.625 -0.125,-3 z"
           id="path8730-0-4-4-0-5" />
      </g>
    </g>
    <g
       transform="matrix(0.80958979,0,0,0.80958979,-272.47023,-130.9103)"
       id="text3270-8-4"
       style="font-style:oblique;font-variant:normal;font-weight:normal;font-stretch:normal;font-size:66.6161px;line-height:80%;font-family:'Frutiger LT 65 Bold';-inkscape-font-specification:'Frutiger LT 65 Bold, Oblique';letter-spacing:0px;word-spacing:0px;opacity:0.3;fill:#000000;fill-opacity:1;stroke:#000000;stroke-width:4.9962;stroke-miterlimit:4;stroke-opacity:1">
      <path
         id="path3585-1-5"
         style="letter-spacing:-3.3308px;fill:#000000"
         d="M 391.66249,324.73999 H 404.386 c 7.32285,0.18458 13.85567,-1.38365 19.59847,-4.7047 5.74272,-3.32104 9.52512,-9.50237 11.34719,-18.544 1.00752,-6.09609 0.57984,-10.83892 -1.28304,-14.22852 -1.86297,-3.38952 -4.69865,-5.75395 -8.50704,-7.09328 -3.80848,-1.33925 -8.12717,-1.98155 -12.95611,-1.92691 h -12.7235 z m 16.23343,-39.16974 h 5.19598 c 4.04285,0.0306 7.32594,1.41839 9.8493,4.16345 2.52328,2.74513 3.41149,6.66433 2.66464,11.75759 -1.04947,5.0933 -3.31993,9.01249 -6.81137,11.75758 -3.49151,2.74511 -7.26406,4.13292 -11.31768,4.16345 h -5.19599 z" />
      <path
         id="path3587-5-6"
         style="letter-spacing:-3.3308px;fill:#000000"
         d="m 436.4722,324.73999 h 12.7235 c 7.32286,0.18458 13.85568,-1.38365 19.59848,-4.7047 5.74272,-3.32104 9.52511,-9.50237 11.34719,-18.544 1.00751,-6.09609 0.57983,-10.83892 -1.28304,-14.22852 -1.86297,-3.38952 -4.69865,-5.75395 -8.50705,-7.09328 -3.80847,-1.33925 -8.12717,-1.98155 -12.9561,-1.92691 h -12.7235 z m 16.23342,-39.16974 h 5.19599 c 4.04284,0.0306 7.32594,1.41839 9.84929,4.16345 2.52328,2.74513 3.4115,6.66433 2.66465,11.75759 -1.04947,5.0933 -3.31993,9.01249 -6.81137,11.75758 -3.49151,2.74511 -7.26406,4.13292 -11.31768,4.16345 h -5.19599 z" />
      <path
         id="path3589-8-6"
         style="letter-spacing:-3.3308px;fill:#000000"
         d="m 480.68237,324.73999 h 8.92644 l 2.2202,-12.59027 c 0.25928,-1.72458 0.69089,-3.66382 1.29484,-5.81773 0.60391,-2.15387 1.56294,-4.0339 2.87708,-5.64009 1.31411,-1.60614 3.16612,-2.44993 5.55603,-2.53137 0.81576,0.001 1.57058,0.0652 2.26445,0.19151 0.69381,0.12632 1.22823,0.30674 1.60324,0.54125 l 1.58586,-8.99305 c -0.44521,-0.12764 -0.89504,-0.20536 -1.34948,-0.23315 -0.4545,-0.0277 -0.89942,-0.0388 -1.33475,-0.0333 -2.72585,0.15825 -5.08957,1.19078 -7.09119,3.09761 -2.00166,1.90689 -3.27397,3.7388 -3.81693,5.49575 h -0.13323 l 1.37441,-7.79398 h -7.92721 z" />
      <path
         id="path3591-7-2"
         style="letter-spacing:-3.3308px;fill:#000000"
         d="m 509.22379,299.89252 c 1.71763,-1.14631 3.54258,-2.05117 5.47484,-2.71457 1.93222,-0.66335 3.85716,-1.00197 5.77482,-1.01588 2.63094,-0.0374 4.48121,0.5038 5.55082,1.62374 1.06955,1.12 1.36042,3.04351 0.87261,5.77055 h -4.92952 c -1.89627,-0.0208 -3.88067,0.1041 -5.9532,0.37471 -2.07256,0.27064 -4.04711,0.81189 -5.92364,1.62374 -1.87452,0.81606 -3.48766,2.01513 -4.83943,3.59722 -1.35178,1.58213 -2.26829,3.6472 -2.74953,6.19522 -0.45781,3.2808 0.33944,5.79552 2.39176,7.54417 2.05231,1.74865 4.65286,2.6313 7.80167,2.64795 2.09174,-0.01 4.1974,-0.52321 6.31698,-1.54048 2.11953,-1.01726 3.89297,-2.48002 5.32032,-4.38827 h 0.13323 c -0.0751,0.56762 -0.17643,1.33092 -0.30388,2.2899 -0.1275,0.95898 -0.19448,1.90547 -0.20095,2.83947 h 7.86059 c 0.13327,-1.32259 0.27663,-2.6077 0.43006,-3.85535 0.15336,-1.24765 0.32709,-2.51611 0.52117,-3.8054 0.18553,-1.24902 0.387,-2.56467 0.60442,-3.94695 0.21735,-1.38225 0.47659,-2.93105 0.77772,-4.64641 l 0.77531,-4.3966 c 0.92483,-5.0322 0.41544,-8.70714 -1.52817,-11.02482 -1.94368,-2.31762 -5.51411,-3.46118 -10.71128,-3.43068 -1.94305,0.008 -4.01315,0.24151 -6.21031,0.69946 -2.1972,0.45801 -4.25451,1.09086 -6.17195,1.89853 z m 1.89849,14.92181 c 0.61332,-2.54941 2.05823,-4.19536 4.33474,-4.93786 2.27648,-0.74246 4.48861,-1.07276 6.63641,-0.9909 h 3.86369 c -0.22232,1.33926 -0.57368,2.60772 -1.0541,3.8054 -0.48046,1.19769 -1.1659,2.28296 -2.05632,3.25581 -0.86868,0.94373 -1.87696,1.68759 -3.02483,2.23161 -1.14792,0.54403 -2.40704,0.8216 -3.77737,0.83269 -1.63633,0.008 -2.921,-0.32474 -3.85401,-0.99923 -0.93304,-0.67447 -1.28911,-1.74031 -1.06821,-3.19752 z" />
      <path
         id="path3593-5-2"
         style="letter-spacing:-3.3308px;fill:#000000"
         d="m 565.83379,290.76624 c -1.14952,-0.36774 -2.40185,-0.64808 -3.75701,-0.84102 -1.35521,-0.19287 -2.92297,-0.29002 -4.70326,-0.29144 -5.40466,0.12078 -9.81377,1.84444 -13.22736,5.17101 -3.41361,3.32662 -5.57904,7.5317 -6.4963,12.61525 -0.93863,5.33061 -0.28891,9.65782 1.94917,12.98163 2.23807,3.32383 6.16336,5.03639 11.77588,5.1377 1.81198,0.003 3.44861,-0.086 4.9099,-0.26646 1.46124,-0.18042 2.86665,-0.46908 4.21623,-0.866 l 0.90424,-7.39428 c -0.86116,0.35806 -1.94149,0.70779 -3.24099,1.04919 -1.29955,0.34141 -2.60031,0.5246 -3.9023,0.54957 -3.11291,-0.0708 -5.24946,-1.14494 -6.40968,-3.22251 -1.16025,-2.07755 -1.45236,-4.73383 -0.87633,-7.96884 0.61021,-3.27939 1.89058,-5.89681 3.84113,-7.85227 1.95051,-1.95541 4.32828,-2.95741 7.13332,-3.00601 1.34632,0.007 2.47716,0.12632 3.39252,0.35806 0.91531,0.23179 1.73073,0.53433 2.44627,0.90763 z" />
      <path
         id="path3595-1-3"
         style="letter-spacing:-3.3308px;fill:#000000"
         d="m 572.94452,304.22251 c 0.60673,-2.34678 1.69159,-4.26474 3.25459,-5.75389 1.56296,-1.4891 3.5943,-2.25795 6.09402,-2.30655 2.46017,0.0653 4.1201,0.86741 4.97979,2.40647 0.85963,1.53912 1.14626,3.42377 0.85986,5.65397 z m 19.18663,11.32458 c -1.83061,0.96038 -3.74716,1.77086 -5.74966,2.43146 -2.00256,0.6606 -4.08669,1.00478 -6.25239,1.03253 -2.79933,-0.0153 -4.93993,-0.76745 -6.4218,-2.25659 -1.4819,-1.48911 -2.09641,-3.62357 -1.84351,-6.40338 h 23.71501 c 1.19245,-6.10915 0.93597,-11.06088 -0.76945,-14.85519 -1.70549,-3.79426 -5.67147,-5.7483 -11.89793,-5.86214 -5.3502,0.13465 -9.64975,1.91383 -12.89866,5.33754 -3.24894,3.42377 -5.32147,7.68437 -6.21758,12.78179 -0.96039,5.66647 -0.16028,10.03809 2.40031,13.11487 2.56058,3.07679 6.68814,4.63392 12.3827,4.67139 2.38588,-0.001 4.58317,-0.23176 6.59188,-0.69113 2.00865,-0.45937 3.9022,-1.1394 5.68064,-2.04009 z" />
    </g>
    <g
       transform="matrix(0.80958979,0,0,0.80958979,-274.98462,-130.9103)"
       id="text3274-6-1"
       style="font-style:oblique;font-variant:normal;font-weight:normal;font-stretch:normal;font-size:66.6161px;line-height:80%;font-family:'Frutiger LT 65 Bold';-inkscape-font-specification:'Frutiger LT 65 Bold, Oblique';letter-spacing:-3.3308px;word-spacing:0px;opacity:0.3;fill:#000000;fill-opacity:1;stroke:#000000;stroke-width:4.9962;stroke-miterlimit:4;stroke-opacity:1">
      <path
         id="path3598-0-2"
         d="m 385.56804,377.08115 h 8.92644 l 6.13199,-34.77314 h 0.13323 l 11.65427,34.77314 h 11.3912 l 8.19947,-46.49741 h -8.92643 l -6.13199,34.77313 h -0.13323 l -11.58766,-34.77313 h -11.45781 z" />
      <path
         id="path3600-2-7"
         d="m 439.99123,356.56366 c 0.60673,-2.34677 1.69159,-4.26473 3.25459,-5.75389 1.56296,-1.48909 3.5943,-2.25794 6.09401,-2.30654 2.46018,0.0653 4.12011,0.86741 4.9798,2.40647 0.85963,1.53911 1.14625,3.42377 0.85986,5.65396 z m 19.18662,11.32459 c -1.8306,0.96038 -3.74715,1.77086 -5.74966,2.43145 -2.00256,0.66061 -4.08669,1.00479 -6.25239,1.03254 -2.79932,-0.0153 -4.93992,-0.76746 -6.42179,-2.25659 -1.48191,-1.48912 -2.09641,-3.62358 -1.84352,-6.40339 h 23.71501 c 1.19246,-6.10915 0.93598,-11.06087 -0.76944,-14.85519 -1.7055,-3.79425 -5.67147,-5.7483 -11.89793,-5.86213 -5.3502,0.13465 -9.64975,1.91383 -12.89867,5.33754 -3.24894,3.42377 -5.32146,7.68436 -6.21758,12.78179 -0.96038,5.66647 -0.16028,10.03808 2.40032,13.11487 2.56058,3.07679 6.68814,4.63392 12.3827,4.67139 2.38588,-0.001 4.58317,-0.23177 6.59187,-0.69113 2.00866,-0.45937 3.9022,-1.1394 5.68065,-2.04009 z" />
      <path
         id="path3602-7-7"
         d="m 468.54694,366.75579 c -0.5907,3.43624 -0.13205,6.13971 1.37596,8.1104 1.50798,1.9707 4.01483,2.97548 7.52055,3.01434 1.32396,0 2.53478,-0.0666 3.63247,-0.19985 1.09764,-0.13323 2.13211,-0.33307 3.1034,-0.59953 l 0.97874,-7.06122 c -0.53055,0.30117 -1.16516,0.53154 -1.90384,0.69114 -0.73873,0.1596 -1.51345,0.2401 -2.32415,0.24148 -1.65194,-0.0527 -2.67426,-0.63006 -3.06697,-1.732 -0.39275,-1.10192 -0.43651,-2.41201 -0.13129,-3.93029 l 2.81931,-15.98765 h 7.92721 l 1.15121,-6.52829 h -7.92721 l 1.71508,-9.72582 -9.43156,2.86445 -1.20995,6.86137 h -6.59491 l -1.15121,6.52829 h 6.5949 z" />
      <path
         id="path3604-8-1"
         d="m 494.08343,377.08115 h 10.19212 l 11.94428,-26.17978 h 0.13323 l 2.8443,26.17978 h 10.5252 l 16.57495,-34.30683 h -8.52674 l -11.60347,25.38039 h -0.13323 l -2.98526,-25.38039 h -10.39197 l -11.40363,25.38039 h -0.13323 l -3.11849,-25.38039 h -9.45935 z" />
      <path
         id="path3606-6-1"
         d="m 543.01054,360.16089 c -0.85197,5.05166 -0.0191,9.23731 2.4987,12.55696 2.51775,3.31966 6.61643,5.04055 12.29606,5.16268 5.75458,-0.12213 10.47963,-1.84302 14.17516,-5.16268 3.69545,-3.31965 6.00734,-7.5053 6.93568,-12.55696 0.89485,-5.71224 -0.0447,-10.1588 -2.81865,-13.3397 -2.77404,-3.18084 -6.76087,-4.79626 -11.9605,-4.84625 -5.18539,0.05 -9.72252,1.66541 -13.61141,4.84625 -3.88892,3.1809 -6.39393,7.62746 -7.51504,13.3397 z m 9.51408,-1.06585 c 0.46644,-2.66875 1.58684,-5.00861 3.36121,-7.01958 1.77434,-2.01092 4.11749,-3.06843 7.02946,-3.17254 2.9086,0.0958 4.90115,1.13665 5.97765,3.12258 1.07643,1.98599 1.37144,4.3425 0.88502,7.06954 -0.46114,3.00048 -1.52158,5.69284 -3.18131,8.07709 -1.6598,2.38428 -4.18301,3.64442 -7.56965,3.78042 -3.30606,-0.14017 -5.36394,-1.40863 -6.17366,-3.8054 -0.80974,-2.39674 -0.91932,-5.08078 -0.32872,-8.05211 z" />
      <path
         id="path3608-5-0"
         d="m 579.81839,377.08115 h 8.92644 l 2.2202,-12.59028 c 0.25928,-1.72458 0.69089,-3.66382 1.29484,-5.81772 0.60391,-2.15388 1.56294,-4.0339 2.87708,-5.64009 1.31411,-1.60614 3.16611,-2.44993 5.55603,-2.53138 0.81576,10e-4 1.57058,0.0653 2.26445,0.19152 0.69381,0.12632 1.22822,0.30673 1.60324,0.54125 l 1.58586,-8.99305 c -0.44521,-0.12765 -0.89504,-0.20537 -1.34948,-0.23316 -0.4545,-0.0277 -0.89942,-0.0388 -1.33476,-0.0333 -2.72584,0.15824 -5.08956,1.19078 -7.09118,3.0976 -2.00166,1.90689 -3.27397,3.73881 -3.81694,5.49576 h -0.13323 l 1.37441,-7.79398 h -7.92721 z" />
      <path
         id="path3610-6-6"
         d="m 602.37938,377.08115 h 8.92644 l 2.93677,-16.6538 h 0.13323 l 8.52104,16.6538 h 11.32458 l -11.04096,-18.98534 15.49196,-15.32149 h -10.52521 l -13.07833,13.72273 h -0.13323 l 5.18047,-29.3773 h -8.92644 z" />
    </g>
    <g
       style="font-style:oblique;font-variant:normal;font-weight:normal;font-stretch:normal;font-size:51.7442px;line-height:80%;font-family:'Frutiger LT 65 Bold';-inkscape-font-specification:'Frutiger LT 65 Bold, Oblique';letter-spacing:0px;word-spacing:0px;fill:#000000;fill-opacity:1;stroke:#000000;stroke-width:3.88082;stroke-miterlimit:4;stroke-opacity:1"
       id="text3278-2-6"
       transform="matrix(1.0422748,0,0,1.0422748,-347.09555,-331.04532)">
      <path
         d="m 373.44607,441.88281 h 9.88301 c 5.68805,0.14338 10.76243,-1.07475 15.22317,-3.65439 4.46068,-2.57962 7.39866,-7.38098 8.81396,-14.4041 0.78259,-4.73515 0.45039,-8.41916 -0.9966,-11.05204 -1.44707,-2.63282 -3.64969,-4.46939 -6.60787,-5.50973 -2.95825,-1.04026 -6.3128,-1.53917 -10.06369,-1.49673 h -9.88302 z m 12.60935,-30.4252 h 4.036 c 3.14029,0.0238 5.69044,1.10174 7.65046,3.23397 1.95997,2.13229 2.64989,5.17653 2.06978,9.13274 -0.81519,3.95624 -2.57877,7.00048 -5.29075,9.13273 -2.71204,2.13227 -5.64239,3.21026 -8.79105,3.23397 h -4.03599 z"
         style="letter-spacing:-2.58721px;fill:#000000"
         id="path3613-5-2" />
      <path
         d="m 408.25213,441.88281 h 9.88302 c 5.68805,0.14338 10.76243,-1.07475 15.22316,-3.65439 4.46068,-2.57962 7.39867,-7.38098 8.81397,-14.4041 0.78259,-4.73515 0.45039,-8.41916 -0.99661,-11.05204 -1.44707,-2.63282 -3.64969,-4.46939 -6.60787,-5.50973 -2.95824,-1.04026 -6.3128,-1.53917 -10.06369,-1.49673 h -9.88301 z m 12.60936,-30.4252 h 4.03599 c 3.14029,0.0238 5.69045,1.10174 7.65047,3.23397 1.95996,2.13229 2.64989,5.17653 2.06977,9.13274 -0.81518,3.95624 -2.57876,7.00048 -5.29075,9.13273 -2.71204,2.13227 -5.64238,3.21026 -8.79104,3.23397 h -4.036 z"
         style="letter-spacing:-2.58721px;fill:#000000"
         id="path3615-9-3" />
      <path
         d="m 442.5925,441.88281 h 6.93364 l 1.72454,-9.77953 c 0.2014,-1.33957 0.53666,-2.84588 1.00577,-4.51893 0.46909,-1.67303 1.21402,-3.13334 2.23479,-4.38096 1.02073,-1.24757 2.45928,-1.90299 4.31565,-1.96625 0.63365,10e-4 1.21996,0.0507 1.75892,0.14876 0.53892,0.0981 0.95403,0.23826 1.24532,0.42042 l 1.23182,-6.98538 c -0.34581,-0.0992 -0.69522,-0.15951 -1.04821,-0.1811 -0.35303,-0.0215 -0.69862,-0.0302 -1.03677,-0.0259 -2.11731,0.12292 -3.95334,0.92494 -5.5081,2.40607 -1.55479,1.48118 -2.54306,2.90413 -2.96481,4.26884 h -0.10349 l 1.06758,-6.05399 h -6.15748 z"
         style="letter-spacing:-2.58721px;fill:#000000"
         id="path3617-4-5" />
      <path
         d="m 464.76213,422.58247 c 1.33417,-0.8904 2.7517,-1.59325 4.25259,-2.10855 1.50086,-0.51526 2.99606,-0.77828 4.48561,-0.78909 2.04359,-0.0291 3.48079,0.39134 4.31161,1.26125 0.83078,0.86996 1.05671,2.36405 0.67781,4.48229 h -3.82903 c -1.47293,-0.0162 -3.01431,0.0809 -4.62416,0.29106 -1.60986,0.21022 -3.1436,0.63064 -4.60121,1.26124 -1.45603,0.63388 -2.70905,1.56526 -3.75903,2.79415 -1.05,1.22893 -1.76191,2.83297 -2.13571,4.81215 -0.35561,2.54838 0.26366,4.50169 1.85781,5.85996 1.59413,1.35827 3.61412,2.04387 6.05996,2.0568 1.62477,-0.008 3.26035,-0.4064 4.90673,-1.19657 1.64636,-0.79016 3.02388,-1.92636 4.13258,-3.4086 h 0.10349 c -0.0584,0.4409 -0.13705,1.0338 -0.23604,1.77868 -0.099,0.7449 -0.15107,1.48009 -0.15609,2.20557 h 6.10574 c 0.10352,-1.02732 0.21486,-2.02554 0.33404,-2.99465 0.11913,-0.96911 0.25407,-1.9544 0.40482,-2.95585 0.14411,-0.97019 0.30061,-1.99212 0.46949,-3.06581 0.16882,-1.07367 0.37019,-2.2767 0.6041,-3.60911 l 0.60222,-3.41507 c 0.71836,-3.90878 0.32269,-6.76329 -1.18701,-8.56356 -1.50976,-1.80022 -4.2831,-2.68848 -8.32002,-2.66479 -1.50927,0.006 -3.11722,0.18759 -4.82387,0.5433 -1.70668,0.35577 -3.30471,0.84733 -4.79408,1.4747 z m 1.47465,11.59056 c 0.4764,-1.98026 1.59874,-3.25876 3.36702,-3.8355 1.76826,-0.57671 3.48654,-0.83327 5.15485,-0.76968 h 3.00113 c -0.17268,1.04027 -0.44561,2.02555 -0.81877,2.95585 -0.3732,0.93031 -0.90562,1.7733 -1.59726,2.52897 -0.67474,0.73303 -1.45793,1.31084 -2.34954,1.7334 -0.89165,0.42258 -1.86968,0.63818 -2.93408,0.6468 -1.27103,0.006 -2.2689,-0.25225 -2.99362,-0.77615 -0.72474,-0.5239 -1.00131,-1.3518 -0.82973,-2.48369 z"
         style="letter-spacing:-2.58721px;fill:#000000"
         id="path3619-7-4" />
      <path
         d="m 508.7341,415.49361 c -0.8929,-0.28564 -1.86565,-0.5034 -2.91827,-0.65327 -1.05267,-0.14981 -2.27043,-0.22527 -3.65327,-0.22637 -4.19808,0.0938 -7.62287,1.43267 -10.27439,4.01659 -2.65153,2.58396 -4.33354,5.85027 -5.04602,9.79893 -0.72909,4.14057 -0.22441,7.50174 1.51403,10.08352 1.73842,2.58179 4.7874,3.91203 9.14694,3.99072 1.40746,0.002 2.67872,-0.0668 3.81378,-0.20697 1.13502,-0.14014 2.22667,-0.36436 3.27497,-0.67267 l 0.70237,-5.74353 c -0.66891,0.27813 -1.50806,0.54978 -2.51745,0.81496 -1.00943,0.26519 -2.0198,0.40749 -3.03113,0.42689 -2.41795,-0.055 -4.07753,-0.88934 -4.97873,-2.5031 -0.90123,-1.61374 -1.12812,-3.67701 -0.68069,-6.18982 0.47398,-2.54727 1.46852,-4.58036 2.98361,-6.09927 1.51506,-1.51887 3.362,-2.29717 5.54082,-2.33492 1.04576,0.005 1.92414,0.0981 2.63515,0.27812 0.71097,0.18004 1.34435,0.41504 1.90015,0.705 z"
         style="letter-spacing:-2.58721px;fill:#000000"
         id="path3621-8-9" />
      <path
         d="m 514.25737,425.9458 c 0.47128,-1.82286 1.31396,-3.31264 2.52802,-4.46935 1.21403,-1.15666 2.79188,-1.75386 4.73354,-1.79162 1.91095,0.0507 3.2003,0.67377 3.86807,1.86924 0.66772,1.19551 0.89036,2.65942 0.6679,4.39173 z m 14.90327,8.7964 c -1.42193,0.74598 -2.91061,1.37553 -4.46606,1.88864 -1.5555,0.51313 -3.17435,0.78047 -4.85656,0.80203 -2.17439,-0.0119 -3.83711,-0.59613 -4.98815,-1.75281 -1.15108,-1.15668 -1.62839,-2.81463 -1.43196,-4.97385 h 18.4207 c 0.92625,-4.7453 0.72702,-8.59157 -0.59767,-11.53881 -1.32475,-2.9472 -4.40533,-4.46501 -9.24175,-4.55343 -4.15578,0.10459 -7.49547,1.48657 -10.01907,4.14595 -2.52362,2.65942 -4.13346,5.96885 -4.82952,9.92829 -0.74598,4.40144 -0.1245,7.79711 1.86445,10.18701 1.98893,2.3899 5.19503,3.59941 9.61829,3.62851 1.85324,-0.001 3.55999,-0.18002 5.12026,-0.53683 1.56023,-0.35682 3.03105,-0.88503 4.41246,-1.58465 z"
         style="letter-spacing:-2.58721px;fill:#000000"
         id="path3623-5-0" />
    </g>
    <g
       style="font-style:oblique;font-variant:normal;font-weight:normal;font-stretch:normal;font-size:51.7442px;line-height:80%;font-family:'Frutiger LT 65 Bold';-inkscape-font-specification:'Frutiger LT 65 Bold, Oblique';letter-spacing:-2.58721px;word-spacing:0px;fill:#000000;fill-opacity:1;stroke:#000000;stroke-width:3.88082;stroke-miterlimit:4;stroke-opacity:1"
       id="text3282-8-0"
       transform="matrix(1.0422748,0,0,1.0422748,-349.60993,-331.04532)">
      <path
         d="m 368.71217,482.53897 h 6.93363 l 4.76304,-27.01013 h 0.10349 l 9.05249,27.01013 h 8.84814 l 6.36897,-36.11699 h -6.93364 l -4.76303,27.01013 h -0.10349 l -9.00075,-27.01013 h -8.89989 z"
         id="path3626-9-8" />
      <path
         d="m 410.98552,466.60196 c 0.47128,-1.82286 1.31395,-3.31265 2.52802,-4.46935 1.21403,-1.15666 2.79188,-1.75387 4.73354,-1.79162 1.91095,0.0507 3.2003,0.67377 3.86807,1.86924 0.66772,1.19551 0.89036,2.65942 0.6679,4.39173 z m 14.90327,8.7964 c -1.42193,0.74598 -2.91061,1.37552 -4.46607,1.88864 -1.55549,0.51313 -3.17434,0.78047 -4.85656,0.80203 -2.17438,-0.0119 -3.8371,-0.59613 -4.98814,-1.75282 -1.15108,-1.15667 -1.62839,-2.81462 -1.43196,-4.97384 h 18.4207 c 0.92624,-4.7453 0.72702,-8.59157 -0.59767,-11.53881 -1.32475,-2.9472 -4.40533,-4.46501 -9.24175,-4.55343 -4.15578,0.10459 -7.49547,1.48657 -10.01907,4.14595 -2.52362,2.65942 -4.13346,5.96885 -4.82952,9.92829 -0.74598,4.40144 -0.1245,7.79711 1.86445,10.18701 1.98893,2.3899 5.19503,3.59941 9.61829,3.62851 1.85324,-0.001 3.55999,-0.18002 5.12026,-0.53684 1.56023,-0.35681 3.03105,-0.88503 4.41246,-1.58464 z"
         id="path3628-3-2" />
      <path
         d="m 433.16626,474.51872 c -0.45883,2.66911 -0.10257,4.76904 1.06877,6.29978 1.17133,1.53074 3.11854,2.31121 5.84162,2.34139 1.02839,0 1.96889,-0.0517 2.82152,-0.15523 0.8526,-0.10348 1.65612,-0.25872 2.41058,-0.46569 l 0.76024,-5.48481 c -0.4121,0.23392 -0.90504,0.41287 -1.47881,0.53683 -0.57381,0.12398 -1.17558,0.1865 -1.80529,0.18758 -1.28315,-0.041 -2.07724,-0.48941 -2.38228,-1.34534 -0.30507,-0.85591 -0.33906,-1.87354 -0.10198,-3.05287 l 2.1899,-12.41844 h 6.15749 l 0.89421,-5.07087 h -6.15749 l 1.3322,-7.55456 -7.326,2.22497 -0.93983,5.32959 h -5.12261 l -0.89421,5.07087 h 5.12261 z"
         id="path3630-3-7" />
      <path
         d="m 453.00179,482.53897 h 7.91676 l 9.27776,-20.33521 h 0.10348 l 2.20932,20.33521 h 8.17548 l 12.87464,-26.64792 h -6.62317 l -9.01303,19.71429 h -0.10349 l -2.31881,-19.71429 h -8.07199 l -8.8578,19.71429 h -0.10348 l -2.4223,-19.71429 h -7.34758 z"
         id="path3632-6-2" />
      <path
         d="m 491.00606,469.39611 c -0.66177,3.9239 -0.0148,7.17511 1.94087,9.75366 1.95567,2.57855 5.13933,3.91526 9.551,4.01012 4.46989,-0.0949 8.14008,-1.43157 11.01059,-4.01012 2.87045,-2.57855 4.66622,-5.82976 5.38731,-9.75366 0.69508,-4.43699 -0.0347,-7.89087 -2.1894,-10.36164 -2.15474,-2.47073 -5.25152,-3.72551 -9.29035,-3.76434 -4.02776,0.0388 -7.55199,1.29361 -10.5727,3.76434 -3.02073,2.47077 -4.9665,5.92465 -5.83732,10.36164 z m 7.39009,-0.82789 c 0.36231,-2.07296 1.23258,-3.89045 2.61083,-5.45248 1.37821,-1.56199 3.19826,-2.38342 5.46015,-2.46429 2.25926,0.0744 3.80698,0.8829 4.64315,2.42548 0.83612,1.54262 1.06527,3.37305 0.68744,5.49129 -0.35819,2.33062 -1.18188,4.42192 -2.47109,6.2739 -1.28925,1.85199 -3.24916,2.83081 -5.87974,2.93645 -2.56799,-0.10888 -4.16646,-1.09416 -4.79541,-2.95586 -0.62897,-1.86168 -0.71408,-3.94651 -0.25533,-6.25449 z"
         id="path3634-9-4" />
      <path
         d="m 519.59666,482.53897 h 6.93363 l 1.72455,-9.77953 c 0.2014,-1.33957 0.53665,-2.84588 1.00577,-4.51893 0.46909,-1.67303 1.21402,-3.13335 2.23478,-4.38096 1.02074,-1.24757 2.45929,-1.90299 4.31566,-1.96625 0.63365,10e-4 1.21995,0.0507 1.75892,0.14876 0.53892,0.0981 0.95403,0.23826 1.24532,0.42042 l 1.23182,-6.98538 c -0.34582,-0.0992 -0.69522,-0.15952 -1.04821,-0.1811 -0.35303,-0.0215 -0.69863,-0.0302 -1.03677,-0.0259 -2.11731,0.12291 -3.95334,0.92494 -5.5081,2.40607 -1.5548,1.48118 -2.54307,2.90413 -2.96482,4.26884 h -0.10348 l 1.06757,-6.05399 h -6.15748 z"
         id="path3636-1-9" />
      <path
         d="m 537.12097,482.53897 h 6.93363 l 2.28115,-12.93588 h 0.10349 l 6.61874,12.93588 h 8.7964 l -8.5761,-14.74691 12.03342,-11.90101 h -8.17548 l -10.15863,10.65917 h -0.10349 l 4.02394,-22.8189 h -6.93363 z"
         id="path3638-5-3" />
    </g>
    <g
       style="font-style:oblique;font-variant:normal;font-weight:normal;font-stretch:normal;font-size:51.7442px;line-height:80%;font-family:'Frutiger LT 65 Bold';-inkscape-font-specification:'Frutiger LT 65 Bold, Oblique';letter-spacing:0px;word-spacing:0px;fill:#ffa500;fill-opacity:1;stroke:#000000;stroke-width:0;stroke-miterlimit:4;stroke-opacity:1"
       id="text3286-8-1"
       transform="matrix(1.0422748,0,0,1.0422748,-347.09555,-331.04532)">
      <path
         d="m 372.89681,441.33359 h 9.88302 c 5.68805,0.14337 10.76243,-1.07476 15.22316,-3.65439 4.46068,-2.57963 7.39867,-7.38099 8.81397,-14.40411 0.78259,-4.73515 0.45039,-8.41916 -0.99661,-11.05203 -1.44707,-2.63282 -3.64969,-4.4694 -6.60787,-5.50973 -2.95824,-1.04027 -6.3128,-1.53918 -10.06369,-1.49673 h -9.88301 z m 12.60936,-30.4252 h 4.03599 c 3.14029,0.0237 5.69045,1.10173 7.65047,3.23397 1.95996,2.13229 2.64989,5.17653 2.06977,9.13273 -0.81518,3.95624 -2.57876,7.00048 -5.29075,9.13274 -2.71204,2.13227 -5.64238,3.21026 -8.79104,3.23397 h -4.036 z"
         style="letter-spacing:-2.58721px"
         id="path3641-1-5" />
      <path
         d="m 407.70288,441.33359 h 9.88301 c 5.68805,0.14337 10.76243,-1.07476 15.22317,-3.65439 4.46068,-2.57963 7.39866,-7.38099 8.81396,-14.40411 0.78259,-4.73515 0.45039,-8.41916 -0.9966,-11.05203 -1.44707,-2.63282 -3.64969,-4.4694 -6.60787,-5.50973 -2.95825,-1.04027 -6.31281,-1.53918 -10.06369,-1.49673 h -9.88302 z m 12.60935,-30.4252 h 4.036 c 3.14029,0.0237 5.69044,1.10173 7.65046,3.23397 1.95997,2.13229 2.64989,5.17653 2.06977,9.13273 -0.81518,3.95624 -2.57876,7.00048 -5.29075,9.13274 -2.71203,2.13227 -5.64238,3.21026 -8.79104,3.23397 h -4.03599 z"
         style="letter-spacing:-2.58721px"
         id="path3643-9-8" />
      <path
         d="m 442.04325,441.33359 h 6.93363 l 1.72455,-9.77953 c 0.20139,-1.33957 0.53665,-2.84588 1.00577,-4.51894 0.46909,-1.67302 1.21401,-3.13334 2.23478,-4.38095 1.02074,-1.24758 2.45929,-1.90299 4.31566,-1.96625 0.63364,10e-4 1.21995,0.0507 1.75892,0.14876 0.53892,0.0981 0.95403,0.23825 1.24532,0.42041 l 1.23182,-6.98537 c -0.34582,-0.0992 -0.69522,-0.15952 -1.04821,-0.18111 -0.35304,-0.0215 -0.69863,-0.0302 -1.03678,-0.0259 -2.1173,0.12292 -3.95333,0.92494 -5.50809,2.40608 -1.5548,1.48118 -2.54307,2.90412 -2.96482,4.26884 h -0.10349 l 1.06758,-6.054 h -6.15748 z"
         style="letter-spacing:-2.58721px"
         id="path3645-3-0" />
      <path
         d="m 464.21287,422.03325 c 1.33417,-0.8904 2.7517,-1.59325 4.25259,-2.10855 1.50086,-0.51526 2.99607,-0.77829 4.48561,-0.78909 2.04359,-0.0291 3.4808,0.39133 4.31162,1.26125 0.83077,0.86996 1.05671,2.36405 0.6778,4.48228 h -3.82902 c -1.47293,-0.0161 -3.01432,0.0809 -4.62416,0.29106 -1.60987,0.21023 -3.14361,0.63064 -4.60121,1.26125 -1.45604,0.63387 -2.70905,1.56525 -3.75904,2.79415 -1.05,1.22892 -1.7619,2.83297 -2.13571,4.81215 -0.3556,2.54837 0.26367,4.50169 1.85781,5.85995 1.59414,1.35827 3.61412,2.04387 6.05997,2.05681 1.62477,-0.008 3.26034,-0.4064 4.90673,-1.19657 1.64635,-0.79017 3.02388,-1.92637 4.13258,-3.4086 h 0.10349 c -0.0584,0.4409 -0.13705,1.03379 -0.23605,1.77868 -0.099,0.74489 -0.15106,1.48008 -0.15609,2.20557 h 6.10574 c 0.10352,-1.02733 0.21487,-2.02554 0.33405,-2.99466 0.11912,-0.96911 0.25406,-1.95439 0.40482,-2.95585 0.14411,-0.97018 0.3006,-1.99212 0.46948,-3.06581 0.16883,-1.07366 0.37019,-2.2767 0.6041,-3.60911 l 0.60223,-3.41507 c 0.71836,-3.90877 0.32269,-6.76329 -1.18702,-8.56356 -1.50976,-1.80021 -4.28309,-2.68848 -8.32001,-2.66479 -1.50927,0.007 -3.11723,0.1876 -4.82388,0.54331 -1.70668,0.35576 -3.3047,0.84733 -4.79408,1.47469 z m 1.47465,11.59055 c 0.4764,-1.98026 1.59874,-3.25875 3.36703,-3.83549 1.76825,-0.57671 3.48654,-0.83327 5.15485,-0.76968 h 3.00112 c -0.17268,1.04027 -0.4456,2.02555 -0.81877,2.95585 -0.3732,0.93031 -0.90562,1.7733 -1.59725,2.52896 -0.67475,0.73304 -1.45793,1.31084 -2.34955,1.73341 -0.89165,0.42258 -1.86967,0.63817 -2.93408,0.64679 -1.27102,0.006 -2.26889,-0.25224 -2.99361,-0.77615 -0.72474,-0.5239 -1.00132,-1.35179 -0.82974,-2.48369 z"
         style="letter-spacing:-2.58721px"
         id="path3647-9-1" />
      <path
         d="m 508.18484,414.94438 c -0.89289,-0.28564 -1.86565,-0.50339 -2.91827,-0.65326 -1.05266,-0.14981 -2.27042,-0.22527 -3.65327,-0.22638 -4.19808,0.0938 -7.62287,1.43268 -10.27438,4.0166 -2.65154,2.58396 -4.33354,5.85027 -5.04603,9.79893 -0.72908,4.14057 -0.22441,7.50174 1.51403,10.08352 1.73843,2.58179 4.7874,3.91203 9.14694,3.99072 1.40746,0.002 2.67872,-0.0668 3.81378,-0.20697 1.13502,-0.14014 2.22668,-0.36437 3.27498,-0.67267 l 0.70236,-5.74353 c -0.66891,0.27812 -1.50806,0.54978 -2.51744,0.81496 -1.00943,0.26519 -2.01981,0.40748 -3.03113,0.42688 -2.41796,-0.055 -4.07753,-0.88933 -4.97874,-2.50309 -0.90122,-1.61374 -1.12812,-3.67702 -0.68068,-6.18982 0.47398,-2.54728 1.46851,-4.58037 2.9836,-6.09927 1.51507,-1.51887 3.36201,-2.29718 5.54083,-2.33493 1.04575,0.005 1.92414,0.0981 2.63515,0.27812 0.71096,0.18005 1.34435,0.41505 1.90014,0.70501 z"
         style="letter-spacing:-2.58721px"
         id="path3649-8-0" />
      <path
         d="m 513.70812,425.39658 c 0.47128,-1.82287 1.31395,-3.31265 2.52801,-4.46935 1.21404,-1.15666 2.79188,-1.75387 4.73355,-1.79162 1.91094,0.0507 3.2003,0.67377 3.86806,1.86924 0.66773,1.19551 0.89036,2.65941 0.66791,4.39173 z m 14.90326,8.7964 c -1.42192,0.74597 -2.91061,1.37552 -4.46606,1.88864 -1.5555,0.51313 -3.17435,0.78047 -4.85656,0.80202 -2.17439,-0.0119 -3.8371,-0.59612 -4.98815,-1.75281 -1.15107,-1.15668 -1.62839,-2.81462 -1.43195,-4.97385 h 18.4207 c 0.92624,-4.74529 0.72702,-8.59156 -0.59767,-11.53881 -1.32475,-2.9472 -4.40533,-4.46501 -9.24175,-4.55343 -4.15578,0.1046 -7.49547,1.48658 -10.01908,4.14595 -2.52362,2.65943 -4.13346,5.96885 -4.82952,9.9283 -0.74598,4.40144 -0.1245,7.7971 1.86445,10.187 1.98894,2.38991 5.19503,3.59941 9.6183,3.62852 1.85324,-0.001 3.55999,-0.18003 5.12026,-0.53684 1.56022,-0.35681 3.03104,-0.88503 4.41245,-1.58464 z"
         style="letter-spacing:-2.58721px"
         id="path3651-8-2" />
    </g>
    <g
       style="font-style:oblique;font-variant:normal;font-weight:normal;font-stretch:normal;font-size:51.7442px;line-height:80%;font-family:'Frutiger LT 65 Bold';-inkscape-font-specification:'Frutiger LT 65 Bold, Oblique';letter-spacing:-2.58721px;word-spacing:0px;fill:#6ac1ff;fill-opacity:1;stroke:#000000;stroke-width:0;stroke-miterlimit:4;stroke-opacity:1"
       id="text3290-1-7"
       transform="matrix(1.0422748,0,0,1.0422748,-349.60993,-331.04532)">
      <path
         d="m 368.16295,481.98972 h 6.93363 l 4.76304,-27.01013 h 0.10348 l 9.05249,27.01013 h 8.84815 l 6.36896,-36.11699 h -6.93363 l -4.76304,27.01012 h -0.10349 l -9.00074,-27.01012 h -8.89989 z"
         id="path3654-6-3" />
      <path
         d="m 410.4363,466.05271 c 0.47128,-1.82287 1.31395,-3.31265 2.52801,-4.46935 1.21404,-1.15667 2.79188,-1.75387 4.73355,-1.79162 1.91094,0.0507 3.2003,0.67376 3.86806,1.86923 0.66773,1.19551 0.89036,2.65942 0.66791,4.39174 z m 14.90326,8.7964 c -1.42192,0.74597 -2.91061,1.37552 -4.46606,1.88864 -1.5555,0.51312 -3.17435,0.78047 -4.85656,0.80202 -2.17439,-0.0118 -3.8371,-0.59612 -4.98815,-1.75281 -1.15107,-1.15668 -1.62839,-2.81462 -1.43195,-4.97385 h 18.4207 c 0.92624,-4.7453 0.72702,-8.59156 -0.59767,-11.53881 -1.32475,-2.9472 -4.40533,-4.46501 -9.24175,-4.55343 -4.15578,0.10459 -7.49547,1.48658 -10.01908,4.14595 -2.52362,2.65942 -4.13346,5.96885 -4.82952,9.92829 -0.74598,4.40145 -0.1245,7.79711 1.86445,10.18701 1.98894,2.38991 5.19503,3.59941 9.6183,3.62852 1.85324,-10e-4 3.55999,-0.18003 5.12026,-0.53684 1.56022,-0.35682 3.03104,-0.88503 4.41245,-1.58465 z"
         id="path3656-0-6" />
      <path
         d="m 432.61703,473.96947 c -0.45882,2.66911 -0.10257,4.76903 1.06878,6.29977 1.17133,1.53075 3.11853,2.31121 5.84161,2.3414 1.02839,0 1.9689,-0.0517 2.82153,-0.15523 0.85259,-0.10349 1.65612,-0.25872 2.41058,-0.46569 l 0.76023,-5.48482 c -0.4121,0.23393 -0.90503,0.41287 -1.47881,0.53684 -0.57381,0.12397 -1.17557,0.1865 -1.80529,0.18757 -1.28315,-0.041 -2.07724,-0.4894 -2.38228,-1.34533 -0.30507,-0.85592 -0.33906,-1.87354 -0.10197,-3.05287 l 2.1899,-12.41845 h 6.15748 l 0.89421,-5.07087 h -6.15748 l 1.33219,-7.55455 -7.32599,2.22497 -0.93983,5.32958 h -5.12261 l -0.89421,5.07087 h 5.12261 z"
         id="path3658-5-4" />
      <path
         d="m 452.45257,481.98972 h 7.91676 l 9.27775,-20.33522 h 0.10349 l 2.20931,20.33522 h 8.17548 L 493.01,455.34179 h -6.62317 l -9.01303,19.71429 h -0.10348 l -2.31881,-19.71429 h -8.07199 l -8.8578,19.71429 h -0.10349 l -2.42229,-19.71429 h -7.34758 z"
         id="path3660-6-1" />
      <path
         d="m 490.45683,468.84686 c -0.66176,3.92389 -0.0148,7.17511 1.94087,9.75365 1.95567,2.57856 5.13934,3.91526 9.551,4.01013 4.46989,-0.0949 8.14008,-1.43157 11.01059,-4.01013 2.87046,-2.57854 4.66623,-5.82976 5.38731,-9.75365 0.69508,-4.437 -0.0347,-7.89087 -2.18939,-10.36165 -2.15474,-2.47073 -5.25152,-3.72551 -9.29035,-3.76434 -4.02776,0.0388 -7.552,1.29362 -10.5727,3.76434 -3.02073,2.47078 -4.9665,5.92466 -5.83733,10.36165 z m 7.39009,-0.8279 c 0.36231,-2.07296 1.23259,-3.89045 2.61083,-5.45248 1.37822,-1.56198 3.19827,-2.38341 5.46015,-2.46428 2.25927,0.0744 3.80698,0.88289 4.64315,2.42548 0.83613,1.54262 1.06528,3.37305 0.68745,5.49128 -0.35819,2.33063 -1.18189,4.42193 -2.47109,6.2739 -1.28925,1.852 -3.24917,2.83081 -5.87975,2.93645 -2.56799,-0.10887 -4.16646,-1.09416 -4.7954,-2.95585 -0.62898,-1.86168 -0.71409,-3.94651 -0.25534,-6.2545 z"
         id="path3662-9-7" />
      <path
         d="m 519.04743,481.98972 h 6.93364 l 1.72455,-9.77953 c 0.20139,-1.33958 0.53665,-2.84589 1.00577,-4.51894 0.46909,-1.67302 1.21401,-3.13334 2.23478,-4.38095 1.02073,-1.24758 2.45928,-1.90299 4.31566,-1.96626 0.63364,10e-4 1.21995,0.0507 1.75891,0.14877 0.53893,0.0981 0.95403,0.23825 1.24533,0.42041 l 1.23182,-6.98538 c -0.34582,-0.0991 -0.69522,-0.15951 -1.04821,-0.1811 -0.35304,-0.0215 -0.69863,-0.0302 -1.03678,-0.0259 -2.1173,0.12292 -3.95333,0.92494 -5.5081,2.40607 -1.55479,1.48119 -2.54306,2.90413 -2.96481,4.26885 h -0.10349 l 1.06758,-6.054 h -6.15748 z"
         id="path3664-3-7" />
      <path
         d="m 536.57174,481.98972 h 6.93364 l 2.28114,-12.93589 h 0.10349 l 6.61874,12.93589 h 8.7964 l -8.57609,-14.74691 12.03341,-11.90102 h -8.17548 l -10.15863,10.65917 h -0.10349 l 4.02395,-22.8189 h -6.93364 z"
         id="path3666-1-3" />
    </g>
    <path
       id="path3294-7-3"
       d="m 50.201993,109.96795 c -1.891104,0.0462 -3.698095,0.29352 -5.388874,0.65779 l -3.238347,18.31702 h 10.296945 c 5.928563,0.14936 11.213626,-1.10627 15.862901,-3.79502 2.242767,-1.29691 4.112504,-3.14069 5.616611,-5.5153 -2.294255,-0.82704 -3.938444,-2.45955 -6.249063,-4.19976 -0.931689,1.65023 -2.110502,3.05443 -3.56729,4.19976 -2.826649,2.22244 -5.876658,3.3654 -9.158468,3.3901 h -4.224965 l 2.302176,-13.00398 c -0.761903,-0.0453 -1.514008,-0.0686 -2.251626,-0.0505 z m 66.689957,0.506 -3.26368,18.46881 h 7.23568 l 1.79636,-10.19581 c 0.20992,-1.39621 0.54834,-2.96196 1.03727,-4.70575 0.26766,-0.95451 0.64799,-1.83481 1.08783,-2.65646 -2.69251,-0.61287 -5.31571,-0.88491 -7.89346,-0.91079 z m -3.79493,0.15179 c -2.75744,0.23355 -5.50373,0.73315 -8.27305,1.41679 -0.97995,3.2017 -2.63831,5.72577 -5.00928,7.58991 -2.826753,2.22244 -5.876762,3.3654 -9.158468,3.3902 h -4.22507 l 0.936067,-5.33828 c -0.655903,0.2297 -1.279705,0.45261 -1.948116,0.68309 -2.364921,0.81549 -4.309702,1.32454 -5.970671,1.59393 l -1.593846,8.98138 h 10.296945 c 5.928459,0.14936 11.213522,-1.10627 15.862899,-3.79502 4.54015,-2.6256 7.56931,-7.47969 9.08259,-14.522 z m 94.11481,0.1265 c -4.98072,1.27476 -11.01955,3.53731 -18.54467,6.55262 h 17.9881 c 0.46881,-2.40203 0.641,-4.59261 0.55657,-6.55262 z m -72.40777,4.32625 c -0.45193,0.38263 -0.89375,0.77568 -1.29023,1.23969 -1.09439,1.28087 -1.8368,2.97178 -2.2264,5.03463 -0.37063,2.65614 0.28662,4.68159 1.94811,6.09721 1.66149,1.41572 3.77564,2.13697 6.32494,2.15052 1.69339,-0.0104 3.39449,-0.4414 5.11049,-1.26501 1.716,-0.8236 3.14537,-1.9971 4.30094,-3.54196 h 0.1011 c -0.0605,0.45954 -0.12455,1.07052 -0.22763,1.84691 -0.10318,0.77639 -0.17187,1.54611 -0.17719,2.30228 h 6.3756 c 0.10788,-1.07083 0.2047,-2.10185 0.32884,-3.11192 0.0261,-0.21564 0.073,-0.44057 0.1011,-0.65778 -2.93745,-0.60024 -5.53896,-1.67962 -8.07054,-2.98538 -0.61641,0.58982 -1.30201,1.07594 -2.07465,1.44209 -0.92929,0.44046 -1.95177,0.67414 -3.06116,0.6831 -1.32484,0.0104 -2.35659,-0.26348 -3.11192,-0.80963 -0.75534,-0.54595 -1.06427,-1.42604 -0.88552,-2.6058 0.30705,-1.27607 0.87343,-2.26849 1.69516,-2.98538 -1.63898,-0.96874 -3.33977,-1.92185 -5.16114,-2.83357 z m 52.62342,2.73237 c -2.08309,0.83959 -4.37318,1.75383 -6.70444,2.70709 0.25609,2.09841 0.96994,3.86903 2.15042,5.28757 2.07309,2.49093 5.40847,3.76469 10.01877,3.79502 1.93154,-8.3e-4 3.71195,-0.18469 5.33822,-0.55657 1.62615,-0.37199 3.16465,-0.94065 4.60456,-1.66983 l 1.03727,-5.86957 c -1.48212,0.77754 -3.03396,1.43865 -4.65522,1.97344 -1.62115,0.53479 -3.30661,0.81235 -5.05993,0.83486 -2.26622,-0.0125 -4.01203,-0.61598 -5.21168,-1.82158 -1.10607,-1.11148 -1.60563,-2.68083 -1.51797,-4.68043 z m -8.45014,4.88284 c -0.69718,0.28986 -1.55383,0.55845 -2.60579,0.83486 -1.05218,0.27641 -2.10842,0.43526 -3.16247,0.45537 -0.48643,-0.0115 -0.93868,-0.0552 -1.36622,-0.12643 -3.91207,1.19435 -7.30416,1.73977 -10.32227,1.82159 1.83795,2.52783 4.93371,3.84193 9.33555,3.92145 1.467,0 2.81435,-0.0813 3.99733,-0.22773 1.18309,-0.14603 2.29759,-0.387 3.39021,-0.70833 z"
       style="color:#000000;display:inline;overflow:visible;visibility:visible;opacity:0.3;fill:#d40000;fill-opacity:1;fill-rule:nonzero;stroke:none;stroke-width:1.04227px;marker:none;enable-background:accumulate" />
    <path
       id="path3296-5-5"
       d="m 213.09693,151.83894 -3.44076,19.48074 h 7.21036 l 2.37826,-13.48475 h 0.1011 l 6.90684,13.48475 h 9.1838 l -8.67777,-14.92684 c -2.11311,-1.27897 -4.0582,-2.30884 -5.64184,-2.98528 l -1.18913,1.23968 h -0.12642 l 0.30361,-1.66983 c -2.20868,-0.80234 -4.49752,-1.16797 -7.00805,-1.13847 z m -163.587737,0.50602 6.350163,18.97472 h 9.209123 L 67.1178,159.75772 c -1.728925,-1.35172 -3.602623,-2.99393 -6.451472,-4.4527 l -1.138477,6.52725 h -0.126532 l -2.732324,-8.17175 c -0.399921,-0.12956 -0.808596,-0.2588 -1.239681,-0.37949 -2.030456,-0.56856 -4.009632,-0.85363 -5.920121,-0.93607 z m -4.882849,0.22763 c -2.796215,0.37595 -5.353645,1.13285 -7.539295,1.99867 l -2.96006,16.74842 h 7.210352 z m 65.652686,0.43015 c -2.48823,0.22826 -4.96665,0.6682 -7.46342,1.26501 l -1.51797,8.70299 c -0.4782,2.78204 -0.10767,4.95717 1.11315,6.55268 1.22081,1.59541 3.25909,2.42256 6.0972,2.45404 1.07188,0 2.04609,-0.0688 2.93484,-0.17709 0.88864,-0.10787 1.71829,-0.26494 2.50469,-0.48069 l 0.78421,-5.71771 c -0.42952,0.24378 -0.91991,0.42733 -1.51797,0.55657 -0.59806,0.12924 -1.24114,0.20126 -1.89746,0.20241 -1.33745,-0.0427 -2.16147,-0.52468 -2.47937,-1.41676 -0.31799,-0.89209 -0.34832,-1.93332 -0.1011,-3.16247 l 1.5433,-8.77898 z m 8.77897,0.17708 2.90951,18.13986 h 8.24763 l 5.49007,-12.04265 c -1.48086,-0.84383 -3.00738,-1.68015 -4.65521,-2.45404 h -0.025 l -3.23834,7.26101 h -0.12643 l -1.11326,-9.08259 c -2.56962,-0.89563 -5.05545,-1.48848 -7.48864,-1.82159 z m 83.48892,0.53125 c -2.5839,0.75346 -5.41326,1.72913 -8.57656,2.90951 l -2.58057,14.6991 h 7.21046 l 1.79625,-10.19574 c 0.20992,-1.39624 0.57357,-2.96194 1.0626,-4.70577 0.27308,-0.97411 0.63527,-1.8713 1.08782,-2.7071 z m -105.524901,2.17585 c -3.568749,1.11253 -7.281957,2.43111 -11.157239,3.79492 h 10.625887 c 0.259944,-1.33181 0.441508,-2.59901 0.531352,-3.79492 z m 93.583461,2.02389 c -2.69032,1.04509 -5.66174,2.22776 -8.82953,3.51674 -0.32342,0.64642 -0.67133,1.27366 -1.08793,1.87213 -1.3437,1.9303 -3.40605,2.95121 -6.14785,3.06127 -1.29753,-0.0552 -2.33981,-0.32519 -3.16248,-0.80964 -2.88418,0.99662 -5.50352,1.6544 -7.89345,2.04932 0.0427,0.0584 0.0823,0.11893 0.12653,0.17708 2.03827,2.68761 5.34457,4.10094 9.94278,4.19975 4.65886,-0.099 8.49412,-1.51214 11.48607,-4.19975 2.92265,-2.62538 4.78113,-5.90334 5.56586,-9.8669 z m -120.122904,3.94678 c 0.123718,2.56608 0.854769,4.67679 2.226403,6.32494 2.07298,2.49094 5.408468,3.7646 10.018658,3.79493 1.931648,-8.4e-4 3.712062,-0.21002 5.338219,-0.58191 1.626261,-0.37188 3.164763,-0.91522 4.604562,-1.64439 l 1.037272,-5.86957 c -1.482011,0.77753 -3.033854,1.43854 -4.655112,1.97334 -1.621259,0.53489 -3.306617,0.81245 -5.059932,0.83496 -2.266322,-0.0125 -3.986701,-0.64131 -5.186464,-1.84691 -0.694571,-0.69791 -1.167556,-1.55778 -1.391436,-2.60589 -3.093368,0.57054 -5.196053,0.32904 -6.93217,-0.3795 z m 70.889804,0.75899 0.93606,8.7031 h 8.52591 l 1.84692,-3.84558 c -4.18036,-0.90344 -7.71555,-2.74681 -11.30889,-4.85752 z"
       style="opacity:0.3;fill:#0044aa;stroke:none;stroke-width:1.04227" />
  </g>
</svg>
